<?xml version="1.0" standalone="no"?>
<!DOCTYPE svg PUBLIC "-//W3C//DTD SVG 20010904//EN"
 "http://www.w3.org/TR/2001/REC-SVG-20010904/DTD/svg10.dtd">
<svg version="1.0" xmlns="http://www.w3.org/2000/svg"
 width="249.000000pt" height="195.000000pt" viewBox="0 0 249.000000 195.000000"
 preserveAspectRatio="xMidYMid meet">

<g transform="translate(0.000000,195.000000) scale(0.100000,-0.100000)"
fill="#000000" stroke="none">
<path d="M0 975 l0 -975 1245 0 1245 0 0 975 0 975 -1245 0 -1245 0 0 -975z
m1825 530 c147 -60 181 -260 64 -372 -72 -68 -167 -82 -256 -38 -28 15 -57 32
-63 40 -10 12 -18 11 -56 -6 -24 -10 -65 -28 -91 -39 l-48 -21 73 68 74 68
-11 47 c-27 119 50 238 174 269 35 9 98 2 140 -16z m-660 -484 c23 -10 53 -33
68 -50 25 -30 27 -39 27 -122 0 -95 -2 -101 -65 -163 -42 -41 -86 -66 -116
-66 -25 0 -27 4 -33 61 -3 34 -6 129 -6 210 l0 149 43 0 c23 0 60 -9 82 -19z
m-258 -23 c5 -7 15 -31 21 -54 7 -22 21 -49 32 -59 20 -18 20 -18 20 36 0 49
12 91 23 79 3 -3 7 -89 9 -192 l5 -188 -34 0 c-35 0 -106 31 -119 52 -5 7 -2
9 8 5 12 -4 15 0 11 16 -4 18 -3 19 6 7 9 -12 11 -11 11 8 0 12 5 22 10 22 13
0 13 -16 0 -41 -8 -15 -7 -19 4 -19 15 0 47 40 59 73 6 15 3 17 -16 10 -33
-12 -93 -9 -111 6 -21 18 -21 80 -1 88 13 5 13 8 -5 20 -23 16 -27 61 -6 69 8
3 23 1 34 -5 19 -10 19 -9 9 18 -16 44 6 80 30 49z m478 -28 c3 -5 -1 -23 -10
-39 -13 -26 -13 -30 -1 -25 16 6 56 -12 56 -26 0 -16 -43 -50 -64 -51 -21 0
-21 0 0 -9 62 -25 25 -90 -51 -90 -24 0 -25 2 -25 79 0 73 3 84 31 125 29 44
51 57 64 36z"/>
<path d="M1703 1434 c-6 -17 4 -164 13 -189 10 -26 31 -17 38 16 3 17 6 67 6
110 0 78 0 79 -25 79 -14 0 -28 -7 -32 -16z"/>
<path d="M1701 1196 c-9 -11 -10 -20 -1 -36 21 -39 83 -7 67 34 -8 20 -50 21
-66 2z"/>
<path d="M1170 900 c0 -11 5 -20 10 -20 6 0 10 9 10 20 0 11 -4 20 -10 20 -5
0 -10 -9 -10 -20z"/>
<path d="M1232 900 c0 -14 2 -19 5 -12 2 6 2 18 0 25 -3 6 -5 1 -5 -13z"/>
<path d="M1202 852 c-20 -6 -21 -9 -9 -25 12 -18 14 -17 25 7 6 14 11 26 9 25
-1 -1 -12 -4 -25 -7z"/>
</g>
</svg>
