<?xml version="1.0" standalone="no"?>
<!DOCTYPE svg PUBLIC "-//W3C//DTD SVG 20010904//EN"
 "http://www.w3.org/TR/2001/REC-SVG-20010904/DTD/svg10.dtd">
<svg version="1.0" xmlns="http://www.w3.org/2000/svg"
 width="500.000000pt" height="727.000000pt" viewBox="0 0 500.000000 727.000000"
 preserveAspectRatio="xMidYMid meet">

<g transform="translate(0.000000,727.000000) scale(0.100000,-0.100000)"
fill="#000000" stroke="none">
<path d="M80 3770 l0 -3470 27 0 c42 0 4539 -258 4611 -265 l62 -6 0 46 0 45
100 0 100 0 0 3510 0 3510 -89 0 c-98 0 -101 2 -101 66 l0 34 -2355 0 -2355 0
0 -3470z m4770 -65 l0 -3366 -36 -52 -36 -52 6 3205 c4 1763 9 3301 12 3418
l6 212 24 0 24 0 0 -3365z m-1300 3198 c-1 -5 -18 -28 -39 -52 -52 -59 -74
-45 -25 15 32 39 65 58 64 37z m113 -28 c27 -56 23 -65 -28 -65 -25 0 -45 5
-45 10 0 17 40 90 48 90 5 0 16 -16 25 -35z m157 27 c0 -12 -70 -92 -81 -92
-17 0 -9 21 24 60 29 37 57 52 57 32z m-1645 -18 c20 -20 2 -46 -29 -42 -24 4
-34 37 -14 49 18 12 24 11 43 -7z m163 7 c23 -14 10 -46 -18 -46 -16 0 -26 6
-28 19 -3 16 12 36 28 36 3 0 11 -4 18 -9z m182 -16 c0 -34 -52 -49 -64 -18
-10 24 21 46 45 32 11 -5 19 -11 19 -14z m138 16 c21 -13 10 -46 -16 -49 -27
-4 -40 22 -22 43 14 17 20 18 38 6z m162 -26 c0 -29 -25 -39 -45 -19 -8 9 -15
17 -15 19 0 2 7 10 15 19 20 20 45 10 45 -19z m147 9 c3 -8 -1 -22 -9 -30 -12
-12 -17 -12 -33 -1 -23 17 -14 47 15 47 11 0 23 -7 27 -16z m421 -10 c2 -13
-4 -24 -13 -28 -24 -9 -35 1 -35 30 0 21 4 25 23 22 13 -2 23 -11 25 -24z
m546 10 c7 -19 -10 -44 -30 -44 -15 0 -28 35 -19 50 10 16 42 12 49 -6z
m-1544 -159 l0 -65 -70 0 -70 0 0 65 0 65 70 0 70 0 0 -65z m470 31 c0 -18 -3
-48 -6 -65 -6 -30 -7 -31 -65 -31 l-59 0 0 65 0 65 65 0 65 0 0 -34z m-656 15
c7 -11 -79 -91 -99 -91 -25 0 -18 13 32 57 50 44 58 48 67 34z m311 -40 c21
-42 22 -50 9 -55 -29 -11 -85 -6 -90 8 -5 13 39 96 51 96 3 0 16 -22 30 -49z
m135 -16 c-29 -30 -47 -42 -54 -35 -7 7 5 25 34 55 29 30 47 42 54 35 7 -7 -5
-25 -34 -55z m340 47 c0 -4 -20 -27 -44 -51 -56 -55 -75 -37 -20 20 35 36 64
50 64 31z m420 -1 c0 -18 -77 -94 -88 -87 -9 5 -1 21 25 51 35 41 63 57 63 36z
m543 3 c8 -9 -64 -94 -80 -94 -20 0 -16 9 23 56 35 43 45 50 57 38z m-845 -40
c4 -28 -28 -41 -45 -19 -16 23 -5 47 21 43 13 -2 22 -11 24 -24z m140 0 c2
-13 -4 -24 -13 -28 -24 -9 -35 1 -35 30 0 21 4 25 23 22 13 -2 23 -11 25 -24z
m817 -4 c0 -16 -6 -26 -18 -28 -19 -4 -32 20 -23 44 9 25 41 13 41 -16z m-595
-35 l23 -25 -26 0 c-22 0 -27 5 -27 25 0 14 1 25 3 25 2 0 14 -11 27 -25z
m-1080 -110 l0 -65 -70 0 -70 0 0 65 0 65 70 0 70 0 0 -65z m310 0 l0 -65 -65
0 -65 0 0 65 0 65 65 0 65 0 0 -65z m284 59 c12 -5 16 -21 16 -65 l0 -59 -60
0 -60 0 0 65 0 65 44 0 c24 0 51 -3 60 -6z m-800 -48 c14 -25 26 -47 26 -50 0
-3 -27 -6 -60 -6 -33 0 -60 3 -60 7 0 13 51 93 59 93 5 0 21 -20 35 -44z m278
27 c17 -15 19 -15 38 2 14 12 24 15 30 9 7 -7 4 -17 -10 -29 -19 -17 -19 -19
-3 -37 20 -23 9 -36 -17 -20 -16 10 -24 10 -40 0 -26 -17 -37 -3 -16 21 15 16
15 19 1 31 -15 12 -21 40 -8 40 3 0 15 -7 25 -17z m347 1 c25 22 40 2 17 -23
-14 -16 -14 -19 0 -33 24 -23 7 -44 -17 -22 -18 16 -20 16 -38 0 -24 -22 -41
-1 -17 22 14 14 14 17 0 33 -23 25 -8 45 17 23 18 -16 20 -16 38 0z m611 -44
l0 -60 -60 0 c-67 0 -67 1 -54 83 l7 37 53 0 54 0 0 -60z m-290 43 c0 -5 -18
-28 -40 -53 -26 -30 -42 -42 -49 -35 -12 12 53 95 75 95 8 0 14 -3 14 -7z
m140 -2 c0 -18 -77 -94 -88 -87 -8 5 0 21 25 52 34 40 63 57 63 35z m258 -33
c11 -24 17 -46 15 -50 -2 -5 -24 -8 -49 -8 -42 0 -45 1 -38 23 11 37 34 77 44
77 5 0 18 -19 28 -42z m136 -1 c9 -23 16 -46 16 -50 0 -4 -20 -7 -45 -7 -25 0
-45 5 -45 10 0 17 40 90 49 90 4 0 16 -19 25 -43z m156 -7 l0 -50 -50 0 -50 0
0 43 c0 24 3 47 7 50 3 4 26 7 50 7 l43 0 0 -50z m270 39 c0 -16 -63 -89 -77
-89 -21 0 -15 14 23 58 35 41 54 52 54 31z m-1700 -184 l0 -65 -70 0 -70 0 0
65 0 65 70 0 70 0 0 -65z m310 0 l0 -65 -65 0 -65 0 0 65 0 65 65 0 65 0 0
-65z m300 -6 l0 -59 -66 0 c-56 0 -65 2 -60 16 3 9 6 37 6 62 l0 47 60 -3 60
-4 0 -59z m-820 21 c11 -21 20 -44 20 -50 0 -6 -24 -10 -55 -10 -30 0 -55 3
-55 7 0 13 51 93 60 93 5 0 19 -18 30 -40z m350 25 c0 -11 -12 -15 -49 -15
-47 0 -68 9 -54 24 3 3 28 6 55 6 36 0 48 -4 48 -15z m308 -2 c2 -9 -11 -13
-47 -13 -48 0 -61 7 -44 24 12 11 86 2 91 -11z m582 -49 l0 -66 -31 6 c-17 3
-44 6 -60 6 -29 0 -29 1 -29 60 l0 60 60 0 60 0 0 -66z m-317 29 c8 -16 18
-38 21 -50 7 -22 5 -23 -43 -23 -29 0 -51 5 -51 10 0 18 40 90 50 90 5 0 16
-12 23 -27z m140 0 c8 -16 18 -38 21 -50 7 -21 4 -23 -37 -23 -24 0 -46 3 -50
6 -7 7 34 94 45 94 4 0 14 -12 21 -27z m280 -8 c27 -56 23 -65 -28 -65 -25 0
-45 5 -45 10 0 17 40 90 48 90 5 0 16 -16 25 -35z m276 -11 c12 -25 18 -50 15
-55 -7 -11 -65 -11 -82 0 -11 6 -9 17 9 54 13 26 26 47 31 47 4 0 16 -21 27
-46z m291 30 c0 -12 -71 -94 -81 -94 -17 0 -9 22 22 61 27 34 59 52 59 33z
m-435 -34 c0 -16 -6 -26 -19 -28 -24 -5 -37 17 -25 41 14 26 44 17 44 -13z
m-1125 5 c0 -11 -12 -15 -49 -15 -47 0 -68 9 -54 24 3 3 28 6 55 6 36 0 48 -4
48 -15z m308 -2 c2 -9 -11 -13 -47 -13 -39 0 -51 4 -51 16 0 12 10 14 47 12
26 -2 48 -9 51 -15z m-310 -35 c-5 -15 -50 -22 -85 -13 -39 9 -16 25 38 25 36
0 49 -4 47 -12z m310 0 c-3 -7 -25 -14 -51 -16 -37 -2 -47 0 -47 12 0 12 12
16 51 16 36 0 49 -4 47 -12z m-448 -97 c0 -78 -3 -81 -76 -81 l-64 0 0 65 0
65 70 0 70 0 0 -49z m310 -16 l0 -65 -65 0 -65 0 0 65 0 65 65 0 65 0 0 -65z
m-500 41 c0 -16 -80 -86 -99 -86 -22 0 -10 19 37 59 51 44 62 49 62 27z m262
-3 c17 -15 19 -15 37 1 25 22 40 2 17 -23 -14 -16 -14 -19 0 -33 23 -23 8 -44
-16 -23 -17 15 -20 15 -42 1 -31 -21 -43 -9 -22 22 14 22 14 25 0 41 -9 10
-13 21 -9 24 9 10 14 9 35 -10z m373 -38 l0 -50 -50 0 c-48 0 -50 1 -53 29 -2
15 -1 39 3 53 5 22 10 24 53 21 l47 -3 0 -50z m165 33 c0 -13 -3 -40 -6 -60
l-7 -38 -58 0 -59 0 0 60 0 60 65 0 c61 0 65 -1 65 -22z m420 -43 l0 -65 -60
0 -60 0 0 65 0 65 60 0 60 0 0 -65z m410 0 l0 -65 -60 0 -60 0 0 65 0 65 60 0
60 0 0 -65z m-706 48 c7 -7 -72 -93 -86 -93 -18 0 -6 27 29 62 38 39 45 43 57
31z m124 -35 c11 -24 17 -46 15 -50 -2 -5 -24 -8 -49 -8 -42 0 -45 1 -38 23
11 37 34 77 44 77 5 0 18 -19 28 -42z m262 27 c19 23 35 3 19 -24 -11 -16 -11
-23 -1 -33 16 -16 15 -28 -3 -28 -9 0 -18 7 -22 15 -5 14 -8 14 -24 -1 -24
-22 -37 -10 -21 17 10 16 10 24 2 34 -18 22 -1 39 20 20 16 -14 18 -14 30 0z
m165 -40 l0 -50 -40 0 -40 0 -3 53 -3 53 43 -3 43 -3 0 -50z m224 33 c11 -10
14 -10 18 0 5 12 33 18 33 6 0 -3 -5 -14 -11 -25 -8 -15 -7 -24 2 -35 8 -10 9
-18 2 -25 -7 -7 -14 -5 -23 6 -12 14 -14 14 -30 0 -24 -22 -38 0 -16 24 15 16
15 19 1 31 -8 7 -15 16 -15 21 0 13 24 11 39 -3z m175 -28 c23 -57 21 -60 -29
-60 -51 0 -55 9 -28 65 22 46 37 44 57 -5z m156 32 c0 -12 -70 -92 -81 -92
-17 0 -9 21 23 61 29 36 58 51 58 31z m115 -42 c0 -16 -6 -26 -18 -28 -19 -4
-32 20 -23 44 9 25 41 13 41 -16z m-1805 -135 l0 -65 -65 0 -65 0 0 65 0 65
65 0 65 0 0 -65z m-215 -10 c-33 -29 -53 -40 -60 -33 -7 6 6 25 39 54 36 33
52 42 60 34 8 -8 -3 -23 -39 -55z m1095 23 c0 -81 -6 -88 -66 -88 l-54 0 0 65
0 65 60 0 60 0 0 -42z m130 -23 l0 -65 -55 0 -55 0 0 65 0 65 55 0 55 0 0 -65z
m140 0 l0 -65 -55 0 -55 0 0 65 0 65 55 0 55 0 0 -65z m103 59 l37 -7 0 -58 0
-59 -60 0 -60 0 0 65 c0 72 0 72 83 59z m-1113 -18 c0 -12 -80 -86 -94 -86
-16 0 -2 28 31 62 38 39 63 49 63 24z m150 1 c0 -21 -77 -90 -90 -82 -8 5 2
22 31 51 45 46 59 53 59 31z m434 5 c7 -11 -63 -92 -80 -92 -21 0 -18 7 23 56
37 44 48 51 57 36z m696 -52 l0 -60 -55 0 -55 0 0 60 0 60 55 0 55 0 0 -60z
m138 -9 l3 -64 -32 7 c-17 3 -42 6 -55 6 -23 0 -24 3 -24 61 l0 60 53 -3 52
-3 3 -64z m-1928 44 c17 -21 5 -45 -24 -45 -27 0 -42 26 -25 46 15 18 33 18
49 -1z m788 -23 c4 -28 -24 -41 -44 -20 -20 20 -7 50 20 46 13 -2 22 -12 24
-26z m137 -2 c0 -16 -6 -26 -18 -28 -19 -4 -32 20 -23 44 9 25 41 13 41 -16z
m1253 -13 c3 -22 -1 -27 -18 -27 -23 0 -35 22 -26 46 10 25 41 12 44 -19z
m-118 -64 c0 -1 -22 -3 -50 -3 l-50 0 0 46 0 45 50 -42 c28 -23 50 -44 50 -46z
m-1550 -30 c0 -10 -82 -93 -92 -93 -18 0 -6 27 29 62 34 35 63 49 63 31z m150
-5 c0 -16 -71 -88 -87 -88 -23 0 -14 18 30 59 44 43 57 49 57 29z m150 0 c0
-16 -71 -88 -87 -88 -20 0 -16 9 23 56 34 42 64 57 64 32z m400 -28 c30 -59
27 -70 -20 -70 -26 0 -43 5 -46 14 -5 13 31 96 41 96 3 0 14 -18 25 -40z m158
-18 l3 -53 -48 3 c-43 3 -48 6 -51 29 -2 14 2 38 8 53 9 24 14 27 47 24 l38
-3 3 -53z m125 48 c9 0 17 -4 17 -10 0 -13 -87 -13 -94 -1 -8 12 14 21 39 16
11 -3 28 -5 38 -5z m91 -16 c6 -15 8 -15 26 1 24 22 39 12 22 -15 -10 -16 -10
-24 0 -40 16 -25 2 -38 -19 -17 -16 15 -18 15 -35 0 -23 -20 -33 -11 -18 16 7
14 8 27 1 40 -10 18 -6 31 10 31 4 0 10 -7 13 -16z m196 -34 l0 -50 -45 0 -45
0 0 50 0 50 45 0 45 0 0 -50z m120 9 c28 -54 21 -73 -26 -66 -20 4 -39 8 -41
11 -7 7 28 96 38 96 5 0 18 -18 29 -41z m160 28 c0 -7 -20 -33 -45 -57 -36
-35 -45 -40 -45 -25 0 19 66 95 82 95 4 0 8 -6 8 -13z m-1890 -21 c0 -29 -28
-42 -48 -22 -20 20 -8 46 23 46 20 0 25 -5 25 -24z m164 9 c5 -14 -17 -45 -33
-45 -15 0 -33 30 -27 45 7 19 52 20 60 0z m591 -15 c0 -18 -6 -26 -22 -28 -18
-3 -23 1 -23 21 0 28 9 39 30 35 9 -2 15 -14 15 -28z m145 -7 c0 -20 -4 -24
-22 -21 -25 3 -37 36 -17 48 20 13 39 0 39 -27z m1114 2 c7 -19 -21 -46 -39
-39 -18 7 -20 51 -2 57 17 6 34 -2 41 -18z m-676 -2 c2 -9 -10 -13 -42 -13
-43 0 -63 10 -49 24 12 11 86 2 91 -11z m0 -40 c2 -9 -10 -13 -42 -13 -43 0
-63 10 -49 24 12 11 86 2 91 -11z m-838 -108 l0 -65 -37 0 c-77 0 -83 6 -83
71 l0 59 60 0 60 0 0 -65z m150 0 l0 -65 -60 0 -60 0 0 65 0 65 60 0 60 0 0
-65z m-470 41 c0 -14 -79 -86 -94 -86 -19 0 -1 33 36 64 45 39 58 44 58 22z
m160 7 c0 -10 -82 -93 -92 -93 -18 0 -6 27 29 62 34 35 63 49 63 31z m680 -58
c-29 -30 -47 -42 -54 -35 -7 7 5 25 34 55 29 30 47 42 54 35 7 -7 -5 -25 -34
-55z m190 5 l0 -60 -57 0 -58 0 3 60 4 60 54 0 54 0 0 -60z m140 -5 l0 -66
-57 3 -58 3 -3 63 -3 62 61 0 60 0 0 -65z m136 34 c-3 -17 -6 -47 -6 -65 l0
-34 -55 0 -55 0 0 65 0 65 61 0 62 0 -7 -31z m-1646 -14 c0 -21 -32 -35 -53
-24 -37 21 -2 68 35 48 10 -5 18 -16 18 -24z m1735 -29 c-37 -46 -55 -57 -55
-35 0 22 72 101 83 90 6 -6 -3 -25 -28 -55z m-1577 28 c3 -23 -18 -37 -43 -28
-16 6 -20 35 -8 48 14 14 48 1 51 -20z m762 -9 c0 -7 -6 -18 -14 -24 -11 -9
-18 -8 -30 4 -9 9 -16 18 -16 20 0 2 7 11 16 20 12 12 19 13 30 4 8 -6 14 -17
14 -24z m135 -5 c0 -38 -39 -35 -43 3 -3 25 0 28 20 25 17 -2 23 -9 23 -28z
m833 -6 c4 -28 -28 -41 -45 -19 -16 23 -5 47 21 43 13 -2 22 -11 24 -24z
m-1735 -74 l47 0 0 -60 0 -60 -70 0 -70 0 0 66 c0 64 1 66 23 60 12 -3 43 -6
70 -6z m-178 -66 c-54 -47 -65 -52 -65 -30 0 23 93 97 105 85 7 -7 -6 -24 -40
-55z m535 1 l0 -65 -34 0 c-18 0 -48 3 -65 6 -30 6 -31 7 -31 65 l0 59 65 0
65 0 0 -65z m-169 51 c2 -3 3 -25 1 -50 l-4 -46 -49 0 -49 0 0 50 0 50 48 0
c27 0 51 -2 53 -4z m309 -45 c0 -28 -4 -52 -9 -56 -6 -3 -28 -3 -50 1 l-41 7
0 48 0 49 50 0 50 0 0 -49z m130 9 c-11 -16 -33 -39 -48 -51 -25 -19 -27 -20
-31 -3 -2 11 12 33 38 57 47 43 73 41 41 -3z m260 -25 c-29 -30 -47 -42 -54
-35 -7 7 5 25 34 55 29 30 47 42 54 35 7 -7 -5 -25 -34 -55z m190 1 l0 -65
-57 6 c-32 3 -60 7 -62 9 -2 2 0 28 4 59 l6 55 55 0 54 0 0 -64z m280 -1 l0
-65 -60 0 -60 0 0 65 0 65 60 0 60 0 0 -65z m270 0 l0 -65 -55 0 -55 0 0 65 0
65 55 0 55 0 0 -65z m-422 43 c-5 -14 -61 -23 -85 -14 -27 11 -2 26 43 26 32
0 44 -4 42 -12z m270 -5 c2 -9 -10 -13 -42 -13 -35 0 -46 4 -46 16 0 12 9 14
42 12 23 -2 43 -9 46 -15z m282 -5 c0 -14 -69 -88 -82 -88 -17 0 -7 24 25 60
32 39 57 50 57 28z m-993 -14 c3 -8 -2 -23 -11 -32 -15 -15 -17 -15 -32 0 -21
21 -11 48 16 48 11 0 23 -7 27 -16z m441 -16 c-3 -8 -22 -13 -48 -13 -26 0
-45 5 -47 13 -3 8 10 12 47 12 37 0 50 -4 48 -12z m272 -3 c0 -11 -12 -15 -45
-15 -33 0 -45 4 -45 15 0 11 12 15 45 15 33 0 45 -4 45 -15z m-270 -35 c0 -5
-22 -10 -50 -10 -27 0 -50 5 -50 10 0 6 23 10 50 10 28 0 50 -4 50 -10z m270
-5 c0 -11 -12 -15 -45 -15 -33 0 -45 4 -45 15 0 11 12 15 45 15 33 0 45 -4 45
-15z m-1430 -95 l0 -60 -70 0 -70 0 0 60 0 60 70 0 70 0 0 -60z m310 -5 l0
-65 -65 0 -65 0 0 65 0 65 65 0 65 0 0 -65z m-512 10 c12 -25 22 -48 22 -50 0
-8 -108 -6 -113 3 -7 11 43 92 57 92 7 0 22 -20 34 -45z m342 30 c0 -11 -12
-15 -49 -15 -47 0 -68 9 -54 24 3 3 28 6 55 6 36 0 48 -4 48 -15z m293 -47 c9
-20 13 -39 9 -42 -7 -8 -87 -8 -95 0 -3 4 5 29 19 57 29 56 39 53 67 -15z
m597 -3 l0 -65 -60 0 -60 0 0 65 0 65 60 0 60 0 0 -65z m280 0 l0 -65 -60 0
-60 0 0 65 0 65 60 0 60 0 0 -65z m-450 9 c11 -25 20 -48 20 -50 0 -2 -22 -4
-50 -4 -27 0 -50 2 -50 4 0 15 43 96 51 96 5 0 19 -21 29 -46z m295 31 c0 -5
-21 -11 -47 -13 -45 -3 -58 4 -41 22 11 10 88 3 88 -9z m273 -2 c2 -9 -10 -13
-42 -13 -43 0 -55 7 -39 24 12 11 76 2 81 -11z m152 -49 l0 -67 -37 7 c-21 3
-46 6 -55 6 -15 0 -18 10 -18 60 l0 60 55 0 55 0 0 -66z m110 16 c11 -21 20
-44 20 -50 0 -11 -82 -14 -93 -4 -7 7 34 94 45 94 4 0 17 -18 28 -40z m-1553
-10 c0 -29 -2 -30 -48 -30 -53 0 -73 15 -37 29 17 7 19 10 6 10 -10 1 -18 6
-18 11 0 6 22 10 48 10 47 0 49 -1 49 -30z m1018 5 c0 -5 -21 -11 -47 -13 -45
-3 -58 4 -41 22 11 10 88 3 88 -9z m273 -2 c2 -9 -10 -13 -42 -13 -35 0 -46 4
-46 16 0 12 9 14 42 12 23 -2 43 -9 46 -15z m-275 -38 c-4 -15 -86 -12 -91 3
-3 10 8 12 44 10 27 -2 48 -7 47 -13z m277 0 c0 -11 -12 -15 -45 -15 -33 0
-45 4 -45 15 0 11 12 15 45 15 33 0 45 -4 45 -15z m-1430 -100 l0 -65 -39 0
c-21 0 -53 3 -70 6 -30 6 -31 7 -31 65 l0 59 70 0 70 0 0 -65z m310 0 l0 -65
-65 0 -65 0 0 65 0 65 65 0 65 0 0 -65z m-498 40 c1 -5 -20 -27 -45 -49 -33
-28 -51 -36 -58 -29 -7 7 4 23 38 52 46 39 63 46 65 26z m328 0 c0 -11 -12
-15 -49 -15 -47 0 -68 9 -54 24 3 3 28 6 55 6 36 0 48 -4 48 -15z m269 -4 c26
17 39 4 23 -21 -10 -16 -10 -24 0 -40 16 -25 3 -37 -19 -17 -16 13 -21 14 -37
2 -26 -20 -40 -8 -23 19 13 18 13 25 1 40 -18 26 -6 41 16 21 15 -14 21 -14
39 -4z m621 -46 l0 -65 -60 0 -60 0 0 65 0 65 60 0 60 0 0 -65z m-440 43 c0
-16 -71 -88 -87 -88 -22 0 -15 18 23 60 36 39 64 52 64 28z m280 0 c0 -14 -69
-88 -82 -88 -18 0 -6 26 29 62 38 39 53 47 53 26z m436 -4 c-3 -9 -6 -36 -6
-60 l0 -44 -55 0 -55 0 0 60 0 60 61 0 c52 0 60 -2 55 -16z m274 -49 l0 -65
-55 0 -55 0 0 65 0 65 55 0 55 0 0 -65z m-482 43 c8 -8 15 -8 27 2 21 17 32 4
17 -20 -10 -16 -10 -24 0 -40 17 -26 3 -37 -21 -16 -16 15 -19 15 -31 1 -9
-11 -16 -13 -23 -6 -7 7 -5 17 6 29 16 17 16 20 2 32 -8 7 -15 16 -15 21 0 13
24 11 38 -3z m332 -3 c0 -11 -12 -15 -45 -15 -33 0 -45 4 -45 15 0 11 12 15
45 15 33 0 45 -4 45 -15z m-721 -9 c15 -18 3 -46 -20 -46 -22 0 -34 22 -25 45
7 19 30 19 45 1z m1001 7 c-1 -5 -19 -28 -40 -53 -52 -59 -74 -43 -24 18 32
37 65 55 64 35z m-1572 -15 c-5 -14 -70 -23 -95 -14 -28 11 -1 26 48 26 36 0
49 -4 47 -12z m1290 -20 c-3 -8 -21 -13 -43 -13 -22 0 -40 5 -42 13 -3 8 9 12
42 12 33 0 45 -4 43 -12z m-1288 -17 c0 -18 -21 -23 -66 -16 -62 9 -55 25 11
25 30 0 55 -4 55 -9z m1288 -23 c-3 -8 -21 -13 -43 -13 -22 0 -40 5 -42 13 -3
8 9 12 42 12 33 0 45 -4 43 -12z m-1278 -93 l0 -65 -65 0 -65 0 0 65 0 65 65
0 65 0 0 -65z m160 38 c0 -16 -3 -45 -6 -65 l-7 -38 -58 0 -59 0 0 65 0 65 65
0 c64 0 65 0 65 -27z m-330 3 c0 -15 -82 -86 -99 -86 -21 0 -11 18 34 59 46
43 65 51 65 27z m476 -23 c-3 -21 -6 -48 -6 -60 0 -21 -4 -23 -60 -23 l-60 0
0 60 0 60 66 0 67 0 -7 -37z m144 -28 l0 -65 -44 0 c-71 0 -76 4 -76 71 l0 59
60 0 60 0 0 -65z m700 -10 l0 -65 -55 0 -55 0 0 65 0 65 55 0 55 0 0 -65z
m140 0 l0 -65 -55 0 -55 0 0 65 0 65 55 0 55 0 0 -65z m-1655 25 c0 -18 -6
-26 -23 -28 -13 -2 -25 3 -28 12 -10 26 4 48 28 44 17 -2 23 -10 23 -28z
m1348 -5 c27 -56 23 -65 -28 -65 -25 0 -45 5 -45 10 0 17 40 90 48 90 5 0 16
-16 25 -35z m-439 19 c9 -3 16 -17 16 -30 0 -19 -5 -24 -25 -24 -20 0 -25 5
-25 23 0 34 8 41 34 31z m876 -1 c0 -19 -77 -96 -88 -89 -8 5 0 21 25 52 33
39 63 57 63 37z m-717 -17 c8 -21 -16 -48 -36 -40 -17 6 -23 35 -10 47 11 12
41 7 46 -7z m141 -2 c7 -19 -10 -44 -31 -44 -17 0 -27 24 -19 45 7 20 42 19
50 -1z m694 -22 c4 -28 -24 -41 -44 -20 -20 20 -7 50 20 46 13 -2 22 -12 24
-26z m-1753 -137 c-34 -30 -53 -41 -60 -34 -7 7 6 25 39 55 36 33 52 42 60 34
8 -9 -2 -23 -39 -55z m179 16 c14 -27 22 -51 19 -55 -11 -10 -103 -7 -103 4 0
20 45 100 56 100 2 0 15 -22 28 -49z m176 -11 l0 -50 -49 0 c-28 0 -52 3 -54
8 -2 4 -2 26 1 50 l4 42 49 0 49 0 0 -50z m150 0 l0 -50 -50 0 -50 0 0 50 0
50 50 0 50 0 0 -50z m145 40 c7 -12 -63 -90 -81 -90 -22 0 -17 12 28 57 47 48
45 47 53 33z m-807 -9 c23 -14 10 -46 -18 -46 -16 0 -26 6 -28 19 -3 16 12 36
28 36 3 0 11 -4 18 -9z m1342 -50 c-35 -42 -60 -59 -60 -37 0 22 72 98 82 88
7 -7 -1 -24 -22 -51z m150 19 c31 -60 27 -70 -25 -70 -34 0 -45 4 -45 15 0 17
37 95 45 95 3 0 14 -18 25 -40z m143 -13 c9 -23 17 -46 17 -50 0 -4 -20 -7
-45 -7 -33 0 -45 4 -45 15 0 23 32 85 44 85 6 0 19 -19 29 -43z m157 30 c0
-20 -77 -90 -90 -82 -7 4 2 22 27 50 38 43 63 56 63 32z m-862 -23 c4 -28 -28
-41 -45 -19 -16 23 -5 47 21 43 13 -2 22 -11 24 -24z m137 -4 c0 -16 -6 -26
-18 -28 -19 -4 -32 20 -23 44 9 25 41 13 41 -16z m140 0 c0 -16 -6 -26 -18
-28 -19 -4 -32 20 -23 44 9 25 41 13 41 -16z m-995 -135 l0 -65 -67 0 -68 0 3
65 4 65 64 0 64 0 0 -65z m-180 41 c0 -7 -21 -33 -46 -56 -34 -31 -49 -39 -57
-31 -8 8 2 23 38 56 54 47 65 53 65 31z m640 -51 l0 -65 -60 0 -60 0 0 65 0
65 60 0 60 0 0 -65z m-340 15 c11 -21 20 -44 20 -50 0 -5 -22 -10 -50 -10 -28
0 -50 5 -50 10 0 18 40 90 50 90 5 0 19 -18 30 -40z m180 32 c0 -4 -20 -27
-44 -51 -60 -59 -84 -45 -25 15 40 40 69 56 69 36z m730 -57 l0 -65 -55 0 -55
0 0 65 0 65 55 0 55 0 0 -65z m-440 42 c0 -21 -77 -90 -90 -82 -8 5 2 22 31
51 45 46 59 53 59 31z m290 1 c0 -14 -69 -88 -82 -88 -18 0 -6 26 29 62 38 39
53 47 53 26z m260 -30 c28 -63 26 -68 -25 -68 -34 0 -45 4 -45 15 0 18 37 95
46 95 3 0 14 -19 24 -42z m310 -23 l0 -65 -61 0 -62 0 7 46 c3 26 6 55 6 65 0
16 8 19 55 19 l55 0 0 -65z m-150 42 c0 -20 -77 -90 -90 -82 -7 4 2 22 27 50
38 43 63 56 63 32z m238 -53 c-59 -60 -74 -41 -17 21 30 32 45 43 53 35 7 -7
-3 -24 -36 -56z m-820 28 c4 -28 -24 -41 -44 -20 -20 20 -7 50 20 46 13 -2 22
-12 24 -26z m979 -8 c3 -8 -2 -23 -11 -32 -15 -15 -17 -15 -32 0 -21 21 -11
48 16 48 11 0 23 -7 27 -16z m-1697 -134 l0 -60 -70 0 -70 0 0 60 0 60 70 0
70 0 0 -60z m310 -5 l0 -65 -65 0 -65 0 0 65 0 65 65 0 65 0 0 -65z m251 55
c47 0 49 -1 49 -29 0 -16 -3 -43 -6 -60 -6 -30 -7 -31 -65 -31 l-59 0 0 66 c0
56 2 65 16 60 9 -3 38 -6 65 -6z m-761 -40 c11 -21 20 -44 20 -50 0 -6 -24
-10 -55 -10 -32 0 -55 4 -55 11 0 19 45 89 57 89 7 0 22 -18 33 -40z m340 25
c0 -11 -12 -15 -50 -15 -38 0 -50 4 -50 15 0 11 12 15 50 15 38 0 50 -4 50
-15z m279 -3 c28 17 38 2 16 -22 -17 -19 -17 -21 -1 -39 22 -24 1 -41 -22 -17
-14 14 -17 14 -33 0 -25 -23 -45 -7 -23 17 13 15 15 22 6 31 -7 7 -12 21 -12
31 0 18 1 18 25 3 20 -13 28 -14 44 -4z m611 -47 l0 -65 -60 0 c-67 0 -65 -2
-54 84 l7 46 53 0 54 0 0 -65z m-295 45 c7 -12 -63 -90 -81 -90 -21 0 -18 7
22 56 37 45 48 51 59 34z m125 -36 c11 -25 18 -50 14 -55 -7 -12 -81 -12 -89
0 -6 11 35 101 47 101 5 0 18 -21 28 -46z m450 -19 l0 -65 -60 0 c-67 0 -65
-2 -54 84 l7 46 53 0 54 0 0 -65z m280 0 l0 -65 -60 0 -60 0 0 65 0 65 60 0
60 0 0 -65z m-490 40 c12 -14 15 -14 31 1 24 21 37 10 21 -17 -9 -14 -9 -25
-2 -39 13 -25 13 -30 -4 -30 -8 0 -17 7 -20 16 -6 15 -8 15 -26 -1 -25 -23
-39 -11 -21 17 9 14 10 23 2 31 -13 13 -15 37 -2 37 5 0 14 -7 21 -15z m275
-1 c15 -15 17 -15 34 0 25 23 39 2 17 -23 -15 -16 -15 -19 -1 -31 15 -12 21
-40 8 -40 -3 0 -15 7 -25 17 -17 15 -19 15 -36 0 -24 -22 -36 -10 -18 18 12
18 12 24 0 39 -7 11 -11 23 -8 27 7 12 10 11 29 -7z m345 -4 c0 -20 -76 -93
-89 -86 -7 5 1 21 26 51 36 42 63 57 63 35z m-1582 -12 c-3 -7 -20 -16 -39
-19 l-34 -6 38 -2 c55 -2 45 -21 -11 -21 -47 0 -49 1 -49 30 0 29 2 30 50 30
34 0 47 -4 45 -12z m-138 -153 l0 -65 -70 0 -70 0 0 65 0 65 70 0 70 0 0 -65z
m310 0 l0 -65 -65 0 -65 0 0 65 0 65 65 0 65 0 0 -65z m-512 16 c32 -56 29
-61 -33 -61 -30 0 -55 3 -55 8 0 16 46 92 56 92 6 0 20 -17 32 -39z m342 24
c0 -11 -12 -15 -49 -15 -47 0 -68 9 -54 24 3 3 28 6 55 6 36 0 48 -4 48 -15z
m460 -50 l0 -65 -60 0 -60 0 0 65 0 65 60 0 60 0 0 -65z m-160 40 c0 -8 -10
-16 -22 -16 l-23 -2 23 -4 c41 -8 23 -23 -28 -23 -51 0 -60 6 -38 28 9 9 9 12
0 12 -7 0 -12 5 -12 10 0 6 23 10 50 10 38 0 50 -4 50 -15z m280 -43 c10 -22
16 -43 12 -46 -3 -3 -25 -6 -49 -6 -50 0 -54 10 -22 72 23 45 31 43 59 -20z
m310 -7 c0 -72 0 -72 -82 -59 l-38 7 0 58 0 59 60 0 60 0 0 -65z m280 0 l0
-65 -60 0 -60 0 0 65 0 65 60 0 60 0 0 -65z m-457 28 c8 -16 18 -38 21 -50 7
-22 5 -23 -43 -23 -29 0 -51 5 -51 10 0 18 40 90 50 90 5 0 16 -12 23 -27z
m305 10 c2 -9 -10 -13 -42 -13 -43 0 -63 10 -49 24 12 11 86 2 91 -11z m432
-48 l0 -65 -60 0 -60 0 0 65 0 65 60 0 60 0 0 -65z m-150 47 c0 -4 -5 -13 -12
-20 -9 -9 -9 -12 0 -12 7 0 12 -4 12 -10 0 -5 -23 -10 -51 -10 -54 0 -65 18
-18 31 24 7 24 7 -3 8 -50 2 -29 21 22 21 28 0 50 -4 50 -8z m260 -38 c11 -25
20 -50 20 -55 0 -12 -87 -12 -95 1 -8 13 37 100 52 100 2 0 13 -21 23 -46z
m-1560 21 c0 -11 -12 -15 -49 -15 -47 0 -68 9 -54 24 3 3 28 6 55 6 36 0 48
-4 48 -15z m1018 -17 c-5 -14 -61 -23 -85 -14 -27 11 -2 26 43 26 32 0 44 -4
42 -12z m-1020 -20 c-5 -14 -70 -23 -95 -14 -28 11 -1 26 48 26 36 0 49 -4 47
-12z m300 -5 c2 -9 -11 -13 -47 -13 -48 0 -61 7 -44 24 12 11 86 2 91 -11z
m720 -15 c-3 -8 -22 -13 -48 -13 -26 0 -45 5 -47 13 -3 8 10 12 47 12 37 0 50
-4 48 -12z m280 -5 c2 -9 -10 -13 -42 -13 -43 0 -63 10 -49 24 12 11 86 2 91
-11z m-1438 -88 l0 -65 -70 0 -70 0 0 65 0 65 70 0 70 0 0 -65z m310 32 c0
-12 -3 -39 -6 -59 l-7 -38 -58 0 -59 0 0 63 0 62 65 -3 c59 -3 65 -6 65 -25z
m-2015 9 c46 -20 69 -65 62 -129 -7 -79 -44 -104 -144 -99 l-33 2 0 120 0 120
40 0 c22 0 56 -6 75 -14z m485 -11 c0 -20 -5 -25 -25 -25 -20 0 -25 5 -25 25
0 20 5 25 25 25 20 0 25 -5 25 -25z m1040 12 c0 -14 -83 -87 -99 -87 -19 0
-12 13 31 57 42 43 68 54 68 30z m289 -5 c27 16 38 3 18 -20 -15 -16 -15 -20
-2 -39 19 -27 0 -43 -23 -19 -14 14 -17 14 -33 0 -25 -22 -46 -8 -24 16 15 17
15 20 1 42 -20 31 -10 43 21 23 18 -12 27 -13 42 -3z m491 -47 l0 -65 -60 0
-60 0 0 65 0 65 60 0 60 0 0 -65z m-160 6 c0 -28 -4 -52 -9 -56 -6 -3 -28 -3
-50 1 l-41 7 0 48 0 49 50 0 50 0 0 -49z m590 -16 l0 -65 -60 0 -60 0 0 65 0
65 60 0 60 0 0 -65z m280 -12 l0 -65 -31 6 c-17 3 -44 6 -60 6 -29 0 -29 0
-29 63 l0 62 60 -3 60 -4 0 -65z m-580 54 c0 -21 -77 -90 -90 -82 -8 5 2 22
31 51 45 46 59 53 59 31z m143 7 c8 -9 -64 -94 -80 -94 -23 0 -14 23 24 62 38
39 45 43 56 32z m256 -13 c26 17 40 4 19 -18 -15 -14 -15 -18 -2 -39 19 -28
-1 -45 -21 -18 -13 18 -14 18 -33 1 -24 -22 -37 -8 -17 19 12 16 11 21 -2 36
-21 24 -6 44 17 23 15 -14 21 -14 39 -4z m461 -46 l0 -65 -60 0 -60 0 0 65 0
65 60 0 60 0 0 -65z m-155 0 l0 -50 -45 0 -45 0 -3 53 -3 53 48 -3 48 -3 0
-50z m285 38 c-1 -5 -19 -28 -40 -53 -27 -31 -43 -41 -50 -34 -7 7 1 23 26 52
32 37 65 55 64 35z m-3229 -23 c22 -12 49 -61 49 -90 0 -14 -7 -20 -22 -20
-21 -1 -22 -2 -5 -14 23 -18 13 -42 -25 -55 -42 -15 -91 7 -107 48 -34 82 39
169 110 131z m192 -22 c23 -27 22 -34 -5 -42 l-23 -6 23 -15 c49 -35 15 -105
-51 -105 -31 0 -81 42 -74 63 6 19 39 21 49 3 9 -16 48 -23 48 -8 0 4 -19 16
-42 27 -39 18 -43 24 -43 55 0 27 6 37 25 47 31 16 70 9 93 -19z m97 -73 c0
-95 0 -95 -25 -95 -25 0 -25 0 -25 95 0 95 0 95 25 95 25 0 25 0 25 -95z m178
85 c21 0 22 -3 22 -109 0 -106 -1 -110 -26 -130 -32 -25 -64 -27 -104 -6 -33
17 -39 39 -13 53 15 9 14 12 -5 37 -32 41 -30 108 4 142 21 21 31 24 62 19 20
-3 47 -6 60 -6z m175 -1 c33 -18 37 -28 37 -112 0 -76 -1 -78 -22 -75 -21 3
-24 10 -28 68 -5 61 -6 65 -30 65 -24 0 -25 -3 -28 -62 -3 -59 -4 -63 -27 -63
-25 0 -25 1 -25 89 l0 90 43 4 c23 2 46 4 50 5 5 1 18 -3 30 -9z m1017 -130
l0 -59 -65 0 -65 0 0 63 0 62 65 -3 65 -4 0 -59z m-170 43 c0 -4 -20 -28 -45
-52 -32 -31 -48 -41 -56 -33 -7 7 2 22 33 52 40 38 68 52 68 33z m310 -4 c0
-16 -71 -88 -87 -88 -25 0 -13 25 29 62 46 40 58 45 58 26z m110 -53 c-29 -30
-47 -42 -54 -35 -7 7 5 25 34 55 29 30 47 42 54 35 7 -7 -5 -25 -34 -55z
m-616 40 c20 -21 9 -45 -20 -45 -29 0 -41 24 -24 45 16 19 25 19 44 0z m1386
-50 c0 -72 0 -72 -82 -59 l-38 7 0 58 0 59 60 0 60 0 0 -65z m-150 48 c0 -10
-82 -93 -92 -93 -18 0 -6 27 29 62 34 35 63 49 63 31z m271 -21 c-5 -9 -25
-32 -44 -50 -53 -51 -59 -20 -7 33 42 43 70 52 51 17z m-727 2 c7 -19 -10 -44
-31 -44 -17 0 -27 24 -19 45 7 20 42 19 50 -1z m141 -14 c0 -18 -6 -26 -21
-28 -26 -4 -40 24 -23 45 18 21 44 11 44 -17z m145 -5 c0 -13 -6 -25 -12 -28
-22 -7 -38 4 -38 28 0 13 6 25 13 28 21 7 37 -4 37 -28z m567 -1 c3 -8 -2 -23
-11 -32 -15 -15 -17 -15 -32 0 -21 21 -11 48 16 48 11 0 23 -7 27 -16z m137 1
c8 -22 -4 -45 -24 -45 -20 0 -36 33 -25 50 9 15 42 12 49 -5z m136 0 c17 -20
5 -45 -20 -45 -11 0 -23 7 -26 15 -6 15 11 45 26 45 4 0 13 -7 20 -15z m-3372
-111 c29 -33 28 -42 -4 -50 -19 -5 -29 -2 -36 10 -10 17 -48 23 -48 7 0 -6 23
-22 52 -38 64 -35 81 -71 51 -112 -15 -19 -30 -27 -61 -29 -51 -4 -77 9 -98
49 -18 35 -18 35 16 44 20 5 27 1 35 -17 6 -15 19 -23 34 -23 43 0 34 23 -19
50 -59 30 -79 62 -62 100 23 51 99 56 140 9z m452 -19 c0 -18 5 -25 20 -25 15
0 20 -7 20 -25 0 -18 -5 -25 -20 -25 -17 0 -20 -7 -20 -40 0 -33 3 -40 20 -40
15 0 20 -7 20 -25 0 -22 -4 -25 -33 -25 -46 0 -57 15 -57 77 0 40 -4 53 -15
53 -10 0 -15 10 -15 30 0 22 4 28 15 24 11 -5 15 1 15 20 0 21 5 26 25 26 20
0 25 -5 25 -25z m1180 10 c10 -12 10 -18 0 -30 -7 -8 -18 -15 -25 -15 -7 0
-18 7 -25 15 -10 12 -10 18 0 30 7 8 18 15 25 15 7 0 18 -7 25 -15z m155 -15
c0 -18 -6 -26 -21 -28 -26 -4 -40 24 -23 45 18 21 44 11 44 -17z m165 -5 c0
-17 -30 -34 -47 -28 -7 3 -13 15 -13 28 0 13 6 25 13 28 17 6 47 -11 47 -28z
m744 28 c7 -7 -72 -93 -86 -93 -18 0 -6 27 29 62 38 39 45 43 57 31z m137 -21
c-5 -9 -25 -32 -44 -50 -53 -51 -59 -20 -7 33 42 43 70 52 51 17z m-737 2 c7
-19 -10 -44 -31 -44 -17 0 -27 24 -19 45 7 20 42 19 50 -1z m141 -14 c0 -29
-32 -41 -41 -16 -9 24 4 48 23 44 12 -2 18 -12 18 -28z m145 15 c17 -20 5 -45
-20 -45 -11 0 -23 7 -26 15 -6 15 11 45 26 45 4 0 13 -7 20 -15z m145 -25 c0
-38 -39 -35 -43 3 -3 25 0 28 20 25 17 -2 23 -9 23 -28z m429 3 c4 -9 1 -23
-7 -30 -7 -8 -21 -11 -30 -7 -17 6 -23 35 -10 47 12 13 41 7 47 -10z m135 3
c15 -18 3 -46 -20 -46 -22 0 -34 22 -25 45 7 19 30 19 45 1z m141 -1 c17 -20
5 -45 -20 -45 -11 0 -23 7 -26 15 -6 15 11 45 26 45 4 0 13 -7 20 -15z m-3130
-50 l17 -50 17 53 c16 47 20 52 47 52 l29 0 -20 -52 c-75 -201 -76 -203 -104
-206 -30 -4 -31 2 -11 51 14 34 13 40 -15 114 -17 43 -30 81 -30 86 0 5 12 7
27 5 22 -2 29 -11 43 -53z m237 29 c24 -24 25 -27 9 -36 -13 -7 -25 -6 -42 3
-13 7 -27 9 -30 6 -4 -4 6 -11 22 -17 62 -24 81 -65 47 -102 -16 -18 -66 -24
-98 -12 -8 4 -22 19 -30 34 -14 26 -13 28 8 34 14 4 26 0 34 -10 6 -9 21 -14
35 -12 20 4 17 7 -23 25 -62 28 -74 58 -39 93 28 28 75 26 107 -6z m313 -12
c11 -13 20 -38 20 -53 0 -28 -1 -29 -55 -29 -31 0 -55 -4 -55 -10 0 -17 31
-24 52 -11 13 8 24 8 38 1 24 -13 17 -34 -16 -49 -81 -36 -151 32 -125 120 20
67 99 85 141 31z m2727 22 c3 -8 -2 -23 -11 -32 -15 -15 -17 -15 -32 0 -21 21
-11 48 16 48 11 0 23 -7 27 -16z m-2440 -17 c13 -13 19 -38 21 -92 l4 -75 -31
0 -31 0 0 64 c0 67 -10 86 -35 66 -10 -8 -15 -32 -15 -71 0 -56 -1 -59 -25
-59 -24 0 -25 2 -25 65 0 51 -4 67 -16 72 -24 9 -34 -15 -34 -79 0 -55 -1 -58
-25 -58 -25 0 -25 0 -25 94 l0 95 110 -2 c89 -2 113 -6 127 -20z m175 -4 c22
-20 24 -43 3 -43 -20 0 -19 -5 6 -40 21 -27 21 -30 5 -54 -18 -29 -54 -41 -91
-32 -31 8 -68 43 -62 59 6 18 42 20 57 2 13 -16 50 -21 50 -6 0 4 -20 16 -45
25 -45 18 -61 41 -50 75 13 41 88 49 127 14z m1168 -80 c0 -16 -3 -45 -6 -65
l-7 -38 -58 0 -59 0 0 65 0 65 65 0 c64 0 65 0 65 -27z m-470 9 c0 -4 -20 -27
-44 -51 -56 -55 -75 -37 -20 20 35 36 64 50 64 31z m137 -36 c12 -24 19 -47
16 -50 -4 -3 -25 -6 -48 -6 -23 0 -44 3 -48 6 -8 9 35 94 48 94 6 0 21 -20 32
-44z m146 9 c27 -56 23 -65 -26 -65 -24 0 -46 3 -50 6 -8 9 35 94 48 94 6 0
19 -16 28 -35z m613 -2 c-3 -21 -6 -50 -6 -65 0 -27 -2 -28 -55 -28 l-55 0 0
65 0 65 61 0 62 0 -7 -37z m-1078 10 c13 -26 4 -43 -24 -43 -29 0 -41 24 -24
45 17 20 37 19 48 -2z m762 -29 c11 -25 20 -48 20 -50 0 -2 -22 -4 -50 -4 -28
0 -50 5 -50 10 0 19 40 90 51 90 5 0 19 -21 29 -46z m140 6 c11 -21 20 -44 20
-50 0 -11 -82 -14 -93 -4 -7 7 34 94 45 94 4 0 17 -18 28 -40z m303 20 c5 -4
7 -25 5 -46 -3 -39 -3 -39 -50 -42 l-48 -3 0 49 c0 27 3 52 7 55 8 8 74 -2 86
-13z m437 -45 l0 -65 -60 0 -60 0 0 65 0 65 60 0 60 0 0 -65z m-315 16 c24
-54 17 -68 -34 -63 -22 2 -41 8 -41 13 0 16 40 89 49 89 4 0 16 -18 26 -39z
m160 -16 l0 -50 -45 0 -45 0 -3 53 -3 53 48 -3 48 -3 0 -50z m285 37 c0 -16
-71 -92 -86 -92 -21 0 -18 7 22 56 33 40 64 57 64 36z m108 -21 c20 -12 10
-46 -14 -49 -25 -4 -40 24 -23 44 13 16 19 17 37 5z m156 -16 c7 -20 -17 -47
-37 -39 -20 7 -23 50 -4 57 17 6 34 -2 41 -18z m-1840 -63 c3 -5 2 -34 -1 -65
l-6 -57 -63 0 c-63 0 -64 0 -64 28 0 15 3 44 6 65 l7 37 58 0 c32 0 60 -4 63
-8z m-210 -63 c-34 -34 -51 -46 -59 -38 -7 7 4 24 38 55 64 61 83 46 21 -17z
m366 -5 l0 -67 -46 7 c-26 3 -55 6 -65 6 -16 0 -19 8 -19 60 l0 60 65 0 65 0
0 -66z m150 1 l0 -65 -65 0 -65 0 0 65 0 65 65 0 65 0 0 -65z m140 0 l0 -65
-60 0 -60 0 0 65 0 65 60 0 60 0 0 -65z m150 -10 c0 -72 0 -72 -82 -59 l-38 7
0 58 0 59 60 0 60 0 0 -65z m278 -2 l3 -63 -61 0 c-67 0 -65 -3 -54 84 l7 47
51 -3 51 -3 3 -62z m-1240 48 c23 -14 10 -46 -18 -46 -16 0 -26 6 -28 19 -3
16 12 36 28 36 3 0 11 -4 18 -9z m1087 -46 l0 -50 -45 0 -45 0 -3 39 c-5 59 2
68 50 64 l43 -3 0 -50z m297 -10 l-4 -66 -51 3 -52 3 -3 63 -3 62 58 0 58 0
-3 -65z m148 0 l0 -65 -60 0 -60 0 0 65 0 65 60 0 60 0 0 -65z m118 59 c20 -6
22 -13 22 -65 l0 -59 -60 0 -60 0 0 65 0 65 38 0 c20 0 47 -3 60 -6z m162 -69
l0 -65 -60 0 -60 0 0 65 0 65 60 0 60 0 0 -65z m280 0 l0 -65 -60 0 -60 0 0
65 0 65 60 0 60 0 0 -65z m-150 -42 c0 -9 -16 -13 -50 -13 -55 0 -58 5 -34 53
31 61 36 62 60 15 13 -24 23 -49 24 -55z m260 52 c10 -12 10 -18 0 -30 -25
-30 -61 -7 -46 30 3 8 12 15 19 15 8 0 20 -7 27 -15z m-1990 -120 l0 -65 -70
0 c-78 0 -76 -4 -64 84 l7 46 63 0 64 0 0 -65z m-180 41 c0 -19 -88 -98 -101
-90 -7 4 8 26 37 55 50 51 64 59 64 35z m320 -47 l0 -50 -52 3 c-52 3 -53 4
-56 36 -5 54 2 62 58 62 l50 0 0 -51z m131 6 c11 -25 17 -50 14 -55 -8 -13
-82 -13 -90 1 -8 11 35 99 48 99 4 0 17 -20 28 -45z m147 39 c19 -6 22 -13 22
-55 l0 -49 -50 0 -50 0 0 48 c0 27 3 52 7 55 8 9 41 9 71 1z m182 -60 l0 -67
-37 7 c-21 3 -48 6 -60 6 -21 0 -23 4 -23 60 l0 60 60 0 60 0 0 -66z m110 16
c31 -60 27 -70 -25 -70 -34 0 -45 4 -45 15 0 17 37 95 45 95 3 0 14 -18 25
-40z m320 -25 l0 -65 -44 0 c-71 0 -76 4 -76 71 l0 59 60 0 60 0 0 -65z m-170
9 c11 -25 20 -48 20 -50 0 -2 -22 -4 -50 -4 -28 0 -50 5 -50 10 0 19 40 90 51
90 5 0 19 -21 29 -46z m298 -12 l3 -53 -48 3 c-45 3 -48 5 -51 32 -2 15 -1 39
3 53 5 21 10 24 48 21 l42 -3 3 -53z m126 8 c23 -57 21 -60 -29 -60 -51 0 -55
9 -28 65 22 46 37 44 57 -5z m140 -3 c9 -23 16 -48 16 -55 0 -18 -79 -16 -86
2 -6 16 32 96 45 96 4 0 16 -19 25 -43z m161 33 c6 -10 -71 -100 -86 -100 -20
0 -7 27 33 67 47 48 45 47 53 33z m145 -6 c0 -12 -75 -94 -87 -94 -22 0 -15
18 23 60 31 35 64 52 64 34z m108 -23 c20 -12 10 -46 -14 -49 -25 -4 -40 24
-23 44 13 16 19 17 37 5z m156 -16 c7 -19 -21 -46 -39 -39 -18 7 -20 51 -2 57
17 6 34 -2 41 -18z m-1994 -121 c0 -56 -2 -65 -16 -60 -9 3 -40 6 -70 6 l-54
0 0 60 0 60 70 0 70 0 0 -66z m-181 44 c-1 -20 -87 -91 -99 -83 -8 5 3 23 31
51 43 43 70 56 68 32z m299 -34 c12 -25 20 -50 17 -55 -8 -12 -92 -12 -100 1
-9 14 37 100 54 100 4 0 17 -21 29 -46z m149 0 c8 -21 -19 -46 -40 -38 -17 6
-23 35 -10 47 12 13 44 7 50 -9z m147 1 c8 -23 -4 -45 -25 -45 -22 0 -34 22
-25 45 3 8 14 15 25 15 10 0 21 -7 25 -15z m145 1 c17 -20 2 -48 -23 -44 -24
3 -34 37 -14 49 18 12 24 11 37 -5z m149 -24 c4 -28 -24 -41 -44 -20 -20 20
-7 50 20 46 13 -2 22 -12 24 -26z m141 14 c15 -18 3 -46 -20 -46 -22 0 -34 22
-25 45 7 19 30 19 45 1z m145 -9 c16 -25 -16 -56 -38 -37 -19 15 -20 32 -4 48
15 15 28 11 42 -11z m446 11 c0 -14 -69 -88 -82 -88 -18 0 -6 26 29 62 38 39
53 47 53 26z m144 5 c7 -7 -72 -93 -86 -93 -18 0 -6 27 29 62 38 39 45 43 57
31z m-446 -31 c4 -28 -24 -41 -44 -20 -20 20 -7 50 20 46 13 -2 22 -12 24 -26z
m137 -2 c0 -18 -6 -26 -22 -28 -18 -3 -23 1 -23 21 0 28 9 39 30 35 9 -2 15
-14 15 -28z m425 5 c17 -20 5 -45 -20 -45 -11 0 -23 7 -26 15 -6 15 11 45 26
45 4 0 13 -7 20 -15z m-1550 -130 l0 -65 -65 0 -65 0 0 65 0 65 65 0 65 0 0
-65z m-207 -6 c-40 -37 -73 -50 -73 -30 0 5 21 28 47 50 33 28 51 37 58 30 7
-7 -3 -23 -32 -50z m-153 26 c17 -20 5 -45 -20 -45 -23 0 -35 22 -26 45 7 19
30 19 46 0z m1621 5 l39 0 0 -66 0 -67 -37 7 c-21 3 -46 6 -55 6 -15 0 -18 10
-18 66 0 56 2 65 16 60 9 -3 33 -6 55 -6z m-1151 -15 c10 -12 10 -18 0 -30
-25 -30 -61 -7 -46 30 3 8 12 15 19 15 8 0 20 -7 27 -15z m865 -45 c-35 -36
-65 -51 -65 -33 0 4 19 27 42 50 28 29 45 40 52 33 7 -7 -3 -23 -29 -50z m475
-5 l0 -65 -60 0 -60 0 0 65 0 65 60 0 60 0 0 -65z m-750 20 c0 -13 -6 -25 -12
-28 -22 -7 -38 4 -38 28 0 13 6 25 13 28 21 7 37 -4 37 -28z m450 26 c0 -18
-77 -94 -88 -87 -9 5 -1 21 24 52 33 40 64 57 64 35z m-306 -17 c7 -19 -10
-44 -31 -44 -17 0 -27 24 -19 45 7 20 42 19 50 -1z m736 9 c0 -10 -82 -93 -92
-93 -18 0 -6 27 29 62 34 35 63 49 63 31z m115 -43 c0 -18 -6 -26 -21 -28 -26
-4 -40 24 -23 45 18 21 44 11 44 -17z m-1735 -100 c11 -21 20 -44 20 -50 0 -5
-22 -10 -50 -10 -28 0 -50 5 -50 10 0 18 40 90 50 90 5 0 19 -18 30 -40z m178
-9 c4 -56 -6 -65 -62 -57 l-46 7 0 43 c0 23 3 46 7 50 4 4 28 6 53 4 l45 -3 3
-44z m143 22 c-18 -33 -79 -85 -91 -78 -8 5 2 22 31 51 44 45 78 60 60 27z
m599 -48 l0 -65 -60 0 -60 0 0 65 0 65 60 0 60 0 0 -65z m236 55 l44 0 0 -66
0 -67 -37 7 c-21 3 -48 6 -60 6 -22 0 -23 4 -23 66 0 56 2 65 16 60 9 -3 36
-6 60 -6z m-1312 -16 c6 -16 -9 -44 -25 -44 -16 0 -38 31 -33 45 8 20 50 19
58 -1z m916 3 c0 -21 -77 -90 -90 -82 -8 5 2 22 31 51 45 46 59 53 59 31z
m288 -45 l3 -53 -48 3 c-48 3 -48 3 -51 42 -5 59 2 68 50 64 l43 -3 3 -53z
m-600 20 c4 -28 -24 -40 -45 -19 -14 13 -14 19 -3 32 18 22 44 15 48 -13z
m880 -30 l3 -53 -48 3 c-48 3 -48 3 -51 42 -5 59 2 68 50 64 l43 -3 3 -53z
m140 42 c9 -2 12 -18 10 -46 l-3 -43 -47 -3 -48 -3 0 49 c0 27 3 51 6 55 6 6
51 1 82 -9z m162 -49 l0 -66 -57 3 -58 3 -3 63 -3 62 61 0 60 0 0 -65z m88
-11 c-59 -60 -74 -41 -17 21 30 32 45 43 53 35 7 -7 -3 -24 -36 -56z m-1681
-95 c-3 -33 -8 -63 -11 -66 -3 -3 -30 -2 -61 2 l-55 6 0 60 0 59 66 0 67 0 -6
-61z m153 -4 l0 -65 -65 0 -65 0 0 65 0 65 65 0 65 0 0 -65z m131 55 c16 0 19
-8 19 -60 l0 -60 -65 0 -65 0 0 66 0 67 46 -7 c26 -3 55 -6 65 -6z m-451 -7
c0 -13 -84 -93 -97 -93 -23 0 -14 18 30 59 39 37 67 51 67 34z m-180 -38 c0
-25 -36 -37 -54 -19 -9 8 -16 17 -16 19 0 2 7 11 16 19 18 18 54 6 54 -19z
m745 -25 c-35 -36 -65 -51 -65 -33 0 4 19 27 42 50 28 29 45 40 52 33 7 -7 -3
-23 -29 -50z m485 -5 l0 -65 -60 0 -60 0 0 65 0 65 60 0 60 0 0 -65z m-180 15
c11 -21 20 -44 20 -50 0 -5 -22 -10 -50 -10 -27 0 -50 2 -50 5 0 12 45 95 52
95 4 0 17 -18 28 -40z m460 -25 l0 -65 -60 0 -60 0 0 65 0 65 60 0 60 0 0 -65z
m-152 43 c-3 -7 -22 -16 -44 -19 l-39 -6 43 -2 c44 -1 54 -13 25 -30 -17 -10
-17 -10 0 -11 9 0 17 -4 17 -10 0 -5 -23 -10 -51 -10 -54 0 -65 18 -18 31 l24
7 -26 1 c-22 1 -26 6 -26 31 0 29 2 30 50 30 34 0 47 -4 45 -12z m582 -53 l0
-65 -60 0 -60 0 0 65 0 65 60 0 60 0 0 -65z m-1036 38 c4 -9 1 -23 -7 -30 -7
-8 -21 -11 -30 -7 -17 6 -23 35 -10 47 12 13 41 7 47 -10z m720 -26 c9 -23 16
-46 16 -50 0 -8 -84 -10 -93 -1 -9 9 35 94 49 94 6 0 19 -19 28 -43z m143 -6
c11 -28 18 -52 15 -55 -12 -12 -83 -6 -88 8 -6 15 31 96 44 96 5 0 17 -22 29
-49z m283 -1 c11 -21 20 -44 20 -50 0 -5 -22 -10 -50 -10 -27 0 -50 2 -50 5 0
12 45 95 52 95 4 0 17 -18 28 -40z m-1860 -116 c0 -64 -1 -66 -22 -60 -13 3
-42 6 -65 6 l-43 0 0 60 0 60 65 0 65 0 0 -66z m305 54 c3 -3 3 -31 -1 -62
l-7 -56 -58 0 -59 0 0 66 0 66 60 -4 c33 -2 62 -7 65 -10z m-475 -5 c0 -13
-84 -93 -97 -93 -25 0 -13 25 30 62 39 35 67 47 67 31z m308 -10 c2 -9 -11
-13 -47 -13 -39 0 -51 4 -51 16 0 12 10 14 47 12 26 -2 48 -9 51 -15z m462
-48 l0 -65 -60 0 -60 0 0 65 0 65 60 0 60 0 0 -65z m-160 39 c0 -12 -10 -14
-47 -12 -66 4 -70 28 -4 28 39 0 51 -4 51 -16z m595 3 c1 -1 -1 -28 -3 -59
l-4 -58 -59 0 c-66 0 -64 -2 -53 85 l7 47 56 -7 c31 -4 56 -8 56 -8z m-301 -4
c7 -7 -72 -93 -86 -93 -18 0 -6 27 29 62 38 39 45 43 57 31z m106 -58 c-29
-30 -47 -42 -54 -35 -7 7 5 25 34 55 29 30 47 42 54 35 7 -7 -5 -25 -34 -55z
m478 -2 l3 -63 -61 0 -60 0 0 65 0 66 58 -3 57 -3 3 -62z m-153 42 c0 -5 -21
-11 -47 -13 -39 -3 -48 0 -48 13 0 13 9 16 48 13 26 -2 47 -7 47 -13z m563 5
c21 0 22 -4 22 -66 0 -64 -1 -66 -22 -60 -13 3 -40 6 -60 6 l-38 0 0 66 0 67
38 -7 c20 -3 47 -6 60 -6z m-1588 -15 c0 -11 -12 -15 -50 -15 -38 0 -50 4 -50
15 0 11 12 15 50 15 38 0 50 -4 50 -15z m1250 0 c15 -14 18 -14 30 0 7 8 16
15 21 15 15 0 10 -27 -6 -40 -14 -12 -14 -15 1 -31 22 -24 8 -46 -16 -24 -15
14 -21 14 -39 4 -28 -18 -38 -4 -16 21 17 19 17 21 2 38 -26 29 -6 43 23 17z
m150 -18 c1 -7 6 -5 14 6 7 9 18 17 25 17 14 0 14 -23 0 -37 -8 -8 -7 -17 2
-31 17 -27 4 -41 -18 -19 -16 15 -18 15 -35 0 -24 -22 -35 -9 -18 22 10 20 11
28 2 37 -7 7 -12 18 -12 25 0 18 40 -2 40 -20z m-1100 7 c0 -12 -10 -14 -47
-12 -66 4 -70 28 -4 28 39 0 51 -4 51 -16z m1420 -24 c31 -60 27 -70 -24 -70
-25 0 -48 4 -51 10 -8 12 37 100 51 100 2 0 13 -18 24 -40z m-697 5 c-4 -15
-86 -12 -91 3 -3 10 8 12 44 10 27 -2 48 -7 47 -13z m-1025 -7 c-3 -7 -25 -14
-51 -16 -37 -2 -47 0 -47 12 0 12 12 16 51 16 36 0 49 -4 47 -12z m302 -7 c0
-18 -20 -23 -60 -16 -56 9 -50 25 10 25 28 0 50 -4 50 -9z m723 -26 c-4 -15
-86 -12 -91 3 -3 10 8 12 44 10 27 -2 48 -7 47 -13z m-1163 -80 l0 -65 -65 0
-65 0 0 65 0 65 65 0 65 0 0 -65z m-192 10 c12 -25 22 -48 22 -50 0 -3 -25 -5
-55 -5 -32 0 -55 4 -55 11 0 17 44 89 56 89 5 0 20 -20 32 -45z m310 39 c39
-11 24 -24 -27 -24 -47 0 -68 9 -54 24 8 8 51 8 81 0z m182 -60 l0 -66 -31 6
c-17 3 -44 6 -60 6 -29 0 -29 1 -29 60 l0 60 60 0 60 0 0 -66z m254 60 l46 -7
0 -58 0 -59 -60 0 -60 0 0 65 c0 72 -3 69 74 59z m-116 -21 c2 -9 -11 -13 -47
-13 -39 0 -51 4 -51 16 0 12 10 14 47 12 26 -2 48 -9 51 -15z m272 -33 c31
-60 27 -70 -24 -70 -25 0 -48 5 -51 10 -6 10 40 100 50 100 3 0 14 -18 25 -40z
m320 -25 l0 -66 -57 3 -58 3 -3 63 -3 62 61 0 60 0 0 -65z m150 0 l0 -65 -60
0 -60 0 0 65 0 65 60 0 60 0 0 -65z m140 -10 c0 -65 0 -65 -29 -65 -16 0 -43
3 -60 6 -30 6 -31 7 -31 65 l0 59 60 0 60 0 0 -65z m140 0 l0 -65 -60 0 -60 0
0 65 0 65 60 0 60 0 0 -65z m116 55 c23 0 24 -3 24 -64 l0 -65 -57 6 c-32 3
-58 6 -58 7 -1 0 1 30 3 65 l4 63 30 -6 c17 -3 41 -6 54 -6z m-1438 -17 c2 -9
-11 -13 -47 -13 -48 0 -68 9 -54 24 12 12 96 2 101 -11z m1612 -48 l0 -65 -60
0 -60 0 0 65 0 65 60 0 60 0 0 -65z m-1312 38 c2 -9 -11 -13 -47 -13 -39 0
-51 4 -51 16 0 12 10 14 47 12 26 -2 48 -9 51 -15z m416 1 c7 -19 -10 -44 -31
-44 -17 0 -27 24 -19 45 7 20 42 19 50 -1z m1026 -3 c0 -5 -18 -28 -39 -52
-27 -30 -43 -41 -50 -34 -7 7 1 24 25 53 33 38 64 55 64 33z m-1742 -28 c2 -9
-11 -13 -47 -13 -48 0 -68 9 -54 24 12 12 96 2 101 -11z m302 -9 c0 -12 -10
-14 -47 -12 -66 4 -70 28 -4 28 39 0 51 -4 51 -16z m-440 -99 l0 -65 -65 0
-65 0 0 65 0 65 65 0 65 0 0 -65z m-176 48 c8 -9 -74 -93 -91 -93 -21 0 -15
12 29 57 43 44 50 48 62 36z m476 -58 l0 -65 -65 0 -65 0 0 49 c0 77 4 81 71
81 l59 0 0 -65z m-230 40 c12 -14 15 -14 31 1 25 23 46 8 23 -17 -16 -18 -16
-20 0 -38 23 -25 2 -40 -23 -17 -16 15 -19 15 -31 1 -12 -15 -40 -21 -40 -8 0
3 7 15 17 25 15 17 15 19 0 36 -10 10 -17 22 -17 25 0 13 28 7 40 -8z m346 5
c16 0 21 -6 21 -30 0 -29 -2 -30 -49 -30 -36 0 -48 4 -48 15 0 10 12 16 38 17
l37 1 -37 4 c-21 2 -38 8 -38 12 0 15 15 22 35 17 11 -3 29 -6 41 -6z m184
-55 l0 -65 -34 0 c-18 0 -48 3 -65 6 -30 6 -31 7 -31 65 l0 59 65 0 65 0 0
-65z m130 37 c0 -4 -20 -27 -44 -51 -56 -55 -75 -37 -20 20 35 36 64 50 64 31z
m270 -38 c11 -25 20 -50 20 -55 0 -12 -87 -12 -95 1 -8 13 37 100 52 100 2 0
13 -21 23 -46z m100 21 c12 -14 15 -14 31 1 24 22 37 10 20 -18 -9 -14 -10
-23 -2 -31 6 -6 11 -17 11 -24 0 -19 -27 -16 -34 3 -6 15 -8 15 -26 -1 -25
-23 -39 -11 -21 17 9 14 10 23 2 31 -13 13 -15 37 -2 37 5 0 14 -7 21 -15z
m208 -2 c2 -9 -11 -13 -47 -13 -48 0 -61 7 -44 24 12 11 86 2 91 -11z m-460
-10 c5 -10 7 -24 5 -30 -6 -18 -42 -16 -49 2 -15 38 26 63 44 28z m600 5 c-3
-7 -20 -16 -39 -19 l-34 -6 38 -2 c39 -1 45 -9 25 -29 -9 -9 -9 -12 0 -12 7 0
12 -4 12 -10 0 -5 -23 -10 -51 -10 -56 0 -65 20 -13 31 l29 7 -31 1 c-27 1
-31 4 -31 31 0 29 2 30 50 30 34 0 47 -4 45 -12z m82 -3 c15 -14 18 -14 30 0
7 8 16 15 21 15 15 0 10 -27 -6 -40 -14 -12 -14 -15 0 -30 15 -17 20 -40 8
-40 -3 0 -14 7 -24 16 -17 15 -20 15 -36 -2 -17 -16 -18 -16 -21 0 -2 9 2 24
9 32 9 11 9 18 1 26 -13 13 -16 38 -5 38 3 0 14 -7 23 -15z m190 -41 c11 -25
20 -48 20 -50 0 -2 -22 -4 -50 -4 -28 0 -50 5 -50 10 0 19 40 90 51 90 5 0 19
-21 29 -46z m-415 11 c0 -5 -21 -11 -47 -13 -39 -3 -48 0 -48 13 0 13 9 16 48
13 26 -2 47 -7 47 -13z m543 6 c20 -12 10 -46 -14 -49 -25 -4 -40 24 -23 44
13 16 19 17 37 5z m-1413 -16 c0 -5 -21 -11 -47 -13 -39 -3 -48 0 -48 13 0 13
9 16 48 13 26 -2 47 -7 47 -13z m868 -30 c-4 -15 -86 -12 -91 3 -3 10 8 12 44
10 27 -2 48 -7 47 -13z m-1003 -80 l0 -65 -65 0 -65 0 0 65 0 65 65 0 65 0 0
-65z m108 55 l42 0 0 -66 c0 -64 -1 -66 -22 -60 -13 3 -42 6 -65 6 l-43 0 0
66 c0 64 1 66 23 60 12 -3 41 -6 65 -6z m-298 -41 c29 -56 22 -71 -32 -63 -24
4 -44 8 -46 9 -5 5 42 95 50 95 4 0 17 -18 28 -41z m-326 25 c19 -7 21 -50 4
-57 -18 -6 -48 11 -48 26 0 7 5 18 12 25 14 14 12 14 32 6z m1209 0 l37 -7 0
-58 0 -59 -60 0 -60 0 0 65 c0 72 0 72 83 59z m-1037 -19 c7 -18 -13 -45 -33
-45 -17 0 -27 24 -19 45 7 20 45 19 52 0z m624 7 c0 -4 -20 -27 -44 -51 -56
-55 -75 -37 -20 20 35 36 64 50 64 31z m590 -57 l0 -65 -60 0 -60 0 0 65 0 65
60 0 60 0 0 -65z m119 59 c30 -6 31 -7 31 -65 l0 -59 -60 0 -60 0 0 65 c0 65
0 65 29 65 16 0 43 -3 60 -6z m171 -69 l0 -65 -60 0 -60 0 0 65 0 65 60 0 60
0 0 -65z m140 0 l0 -65 -60 0 -60 0 0 65 0 65 60 0 60 0 0 -65z m-895 35 c8
-26 -1 -40 -26 -40 -22 0 -34 22 -25 45 8 22 44 18 51 -5z m145 -15 c0 -13 -6
-25 -12 -28 -22 -7 -38 4 -38 28 0 13 6 25 13 28 21 7 37 -4 37 -28z m859 -9
c15 -18 3 -46 -20 -46 -22 0 -34 22 -25 45 7 19 30 19 45 1z m-1730 -78 c-1
-20 -87 -91 -99 -83 -8 5 3 23 31 51 43 43 70 56 68 32z m131 -28 c31 -60 27
-70 -24 -70 -25 0 -48 5 -51 11 -7 11 35 99 47 99 4 0 17 -18 28 -40z m110 15
c12 -14 15 -14 31 1 24 21 38 10 21 -16 -10 -16 -10 -24 0 -40 17 -26 3 -37
-21 -16 -16 15 -19 15 -31 1 -14 -17 -40 -20 -40 -6 0 5 7 17 16 26 15 15 15
17 0 34 -9 10 -16 21 -16 24 0 13 28 7 40 -8z m150 0 c15 -14 18 -14 30 0 7 8
16 15 21 15 15 0 10 -27 -6 -40 -14 -12 -14 -15 0 -30 15 -17 20 -40 8 -40 -3
0 -14 7 -24 16 -14 13 -20 13 -38 3 -28 -18 -38 -4 -16 21 17 19 17 21 2 38
-26 29 -6 43 23 17z m-572 -21 c4 -27 -26 -40 -46 -20 -21 20 -8 48 20 44 14
-2 24 -11 26 -24z m762 -14 c11 -21 20 -44 20 -50 0 -5 -22 -10 -50 -10 -28 0
-50 5 -50 10 0 18 40 90 50 90 5 0 19 -18 30 -40z m455 20 c7 -12 -63 -90 -81
-90 -22 0 -17 14 24 58 41 44 47 48 57 32z m125 -36 c11 -25 20 -50 20 -55 0
-12 -87 -12 -95 1 -8 13 37 100 52 100 2 0 13 -21 23 -46z m320 -19 l0 -65
-60 0 -60 0 0 65 0 65 60 0 60 0 0 -65z m-761 41 c17 -20 2 -48 -23 -44 -24 3
-34 37 -14 49 18 12 24 11 37 -5z m609 -20 c8 -68 -12 -87 -75 -70 -20 6 -23
13 -23 56 l0 49 48 -3 c44 -3 47 -5 50 -32z m-460 -4 c4 -28 -24 -41 -44 -20
-20 20 -7 50 20 46 13 -2 22 -12 24 -26z m742 -21 c0 -28 -4 -52 -9 -56 -6 -3
-28 -3 -50 1 -40 6 -41 7 -41 49 0 23 3 45 7 48 3 4 26 7 50 7 l43 0 0 -49z
m150 34 c0 -10 -82 -95 -91 -95 -19 0 -7 26 28 62 32 33 63 49 63 33z m-1750
-140 c0 -73 3 -71 -84 -59 l-46 7 0 58 0 59 65 0 65 0 0 -65z m150 0 l0 -65
-60 0 -60 0 0 65 0 65 60 0 60 0 0 -65z m111 55 l50 0 -7 -62 c-4 -35 -7 -63
-8 -63 0 -1 -27 1 -58 3 l-58 4 0 65 c0 55 2 64 16 59 9 -3 38 -6 65 -6z m189
-65 l0 -65 -60 0 -60 0 0 65 0 65 60 0 60 0 0 -65z m121 55 l29 0 0 -66 c0
-56 -2 -65 -16 -60 -9 3 -36 6 -60 6 l-44 0 0 66 0 67 31 -7 c17 -3 44 -6 60
-6z m-763 -37 c3 -22 -28 -40 -48 -28 -12 7 -13 38 -3 49 15 14 48 1 51 -21z
m923 -2 c-6 -10 -27 -33 -48 -51 -51 -45 -57 -20 -7 31 41 42 73 54 55 20z
m879 -56 l0 -65 -60 0 -60 0 0 65 0 65 60 0 60 0 0 -65z m-170 9 c11 -25 20
-48 20 -50 0 -2 -22 -4 -50 -4 -28 0 -50 5 -50 10 0 19 40 90 51 90 5 0 19
-21 29 -46z m304 29 c7 -7 -72 -93 -86 -93 -18 0 -6 27 29 62 38 39 45 43 57
31z m-454 -27 c0 -25 -15 -36 -37 -29 -7 3 -13 16 -13 29 0 19 5 24 25 24 20
0 25 -5 25 -24z m-1306 -80 c-3 -7 -25 -29 -49 -49 -62 -52 -72 -27 -12 30 43
41 73 50 61 19z m156 -37 l0 -50 -52 3 c-52 3 -53 4 -56 36 -5 54 2 62 58 62
l50 0 0 -51z m82 34 c17 -15 19 -15 37 1 25 22 40 2 17 -23 -14 -16 -14 -19 0
-33 23 -23 8 -44 -16 -23 -15 14 -21 14 -39 4 -27 -17 -39 -4 -17 20 15 16 15
19 1 31 -15 12 -21 40 -8 40 3 0 15 -7 25 -17z m194 7 c16 0 21 -6 21 -30 0
-29 -2 -30 -49 -30 -36 0 -48 4 -48 15 0 10 12 16 38 17 l37 1 -37 4 c-21 2
-38 8 -38 12 0 15 15 22 35 17 11 -3 29 -6 41 -6z m184 -55 c0 -65 0 -65 -29
-65 -16 0 -43 3 -60 6 -30 6 -31 7 -31 65 l0 59 60 0 60 0 0 -65z m-800 40
c17 -20 5 -45 -20 -45 -23 0 -35 22 -26 45 7 19 30 19 46 0z m930 -8 c0 -21
-77 -90 -90 -82 -8 5 2 22 31 51 45 46 59 53 59 31z m290 -9 c0 -14 -69 -88
-82 -88 -18 0 -6 26 29 62 38 39 53 47 53 26z m129 -34 c12 -25 18 -51 15 -56
-7 -10 -80 -5 -92 6 -8 9 35 96 47 96 6 0 19 -21 30 -46z m459 -21 l3 -63 -61
0 -60 0 0 65 0 66 58 -3 57 -3 3 -62z m-758 42 c17 -20 5 -45 -20 -45 -11 0
-23 7 -26 15 -6 15 11 45 26 45 4 0 13 -7 20 -15z m444 -25 c9 -22 16 -45 16
-50 0 -11 -83 -14 -93 -4 -9 9 35 94 49 94 6 0 19 -18 28 -40z m161 -15 l0
-50 -45 0 -45 0 -3 53 -3 53 48 -3 48 -3 0 -50z m262 -8 c-36 -44 -67 -59 -67
-34 0 20 78 89 91 81 6 -3 -4 -23 -24 -47z m-1279 6 c2 -9 -11 -13 -47 -13
-39 0 -51 4 -51 16 0 12 10 14 47 12 26 -2 48 -9 51 -15z m-138 -108 l0 -65
-65 0 c-73 0 -71 -3 -59 84 l7 46 58 0 59 0 0 -65z m128 55 c20 0 22 -4 22
-60 l0 -60 -66 0 -66 0 6 31 c3 17 6 47 6 67 0 35 0 35 38 28 20 -3 47 -6 60
-6z m132 -50 c31 -60 27 -70 -23 -70 -24 0 -46 3 -50 6 -6 6 39 104 48 104 3
0 14 -18 25 -40z m433 30 l37 0 0 -66 c0 -64 -1 -66 -22 -60 -13 3 -40 6 -60
6 l-38 0 0 66 c0 64 1 66 23 60 12 -3 39 -6 60 -6z m-883 -15 c10 -12 10 -18
0 -30 -25 -30 -61 -7 -46 30 3 8 12 15 19 15 8 0 20 -7 27 -15z m620 3 c0 -16
-71 -88 -87 -88 -21 0 -15 12 29 57 43 44 58 52 58 31z m450 -53 l0 -65 -60 0
-60 0 0 65 0 65 60 0 60 0 0 -65z m140 -11 c0 -70 3 -68 -74 -58 l-46 7 0 61
0 61 60 -3 60 -4 0 -64z m150 1 l0 -65 -60 0 -60 0 0 65 0 65 60 0 60 0 0 -65z
m-616 28 c4 -9 0 -23 -9 -32 -13 -14 -17 -14 -31 1 -9 9 -14 24 -11 32 8 21
43 20 51 -1z m746 5 c0 -16 -71 -88 -87 -88 -21 0 -15 12 29 57 43 44 58 52
58 31z m123 -32 c3 -8 0 -21 -6 -31 -17 -22 -47 -9 -47 21 0 19 5 24 24 24 13
0 26 -6 29 -14z m-1743 -69 c0 -12 -82 -87 -94 -87 -16 0 -2 28 31 62 38 38
63 49 63 25z m158 -33 c4 -51 -10 -62 -65 -56 l-43 4 0 50 0 49 53 -3 52 -3 3
-41z m80 26 c17 -18 20 -19 32 -5 12 15 40 21 40 8 0 -3 -7 -15 -17 -25 -15
-17 -15 -19 1 -37 22 -24 1 -41 -22 -17 -14 14 -17 14 -33 0 -25 -22 -46 -8
-24 16 15 17 15 20 1 42 -9 14 -13 28 -9 31 9 10 10 9 31 -13z m382 -14 c0
-18 -3 -48 -6 -65 -6 -30 -7 -31 -65 -31 l-59 0 0 65 0 65 65 0 65 0 0 -34z
m-801 10 c16 -20 3 -46 -24 -46 -29 0 -39 25 -19 45 19 19 28 19 43 1z m571
-1 c12 -14 15 -14 31 1 25 23 46 8 23 -17 -13 -15 -15 -22 -6 -31 7 -7 12 -18
12 -25 0 -19 -27 -16 -34 3 -6 15 -8 15 -26 -1 -26 -23 -47 -10 -24 16 16 18
16 20 1 37 -10 10 -14 22 -10 25 10 11 19 8 33 -8z m615 -65 c-35 -36 -65 -51
-65 -33 0 4 19 27 42 50 28 29 45 40 52 33 7 -7 -3 -23 -29 -50z m-285 35 c17
-20 5 -45 -20 -45 -11 0 -23 7 -26 15 -6 15 11 45 26 45 4 0 13 -7 20 -15z
m448 -30 c12 -25 22 -48 22 -50 0 -3 -22 -5 -50 -5 -28 0 -50 5 -50 10 0 17
39 90 48 90 5 0 18 -20 30 -45z m142 -1 c11 -25 20 -50 20 -55 0 -12 -87 -12
-95 1 -8 13 37 100 52 100 2 0 13 -21 23 -46z m-440 21 c10 -12 10 -18 0 -30
-25 -30 -61 -7 -46 30 3 8 12 15 19 15 8 0 20 -7 27 -15z m604 8 c7 -7 -72
-93 -86 -93 -18 0 -6 27 29 62 38 39 45 43 57 31z m123 -39 c3 -8 -2 -23 -11
-32 -15 -15 -17 -15 -32 0 -21 21 -11 48 16 48 11 0 23 -7 27 -16z m-1580 -48
c2 -2 1 -29 -3 -60 l-7 -56 -58 0 -59 0 0 66 0 67 62 -7 c34 -3 63 -8 65 -10z
m153 -61 l0 -65 -34 0 c-18 0 -48 3 -65 6 -30 6 -31 7 -31 65 l0 59 65 0 65 0
0 -65z m128 59 c20 -6 22 -13 22 -65 l0 -59 -65 0 -65 0 0 65 0 65 43 0 c23 0
52 -3 65 -6z m172 -53 c0 -71 -6 -81 -49 -81 -75 0 -81 6 -81 71 l0 59 65 0
65 0 0 -49z m-646 14 c3 -8 -2 -21 -10 -29 -8 -8 -21 -13 -29 -10 -21 8 -26
32 -9 48 16 17 40 12 48 -9z m776 1 c0 -15 -74 -86 -90 -86 -20 0 -9 25 27 62
38 39 63 49 63 24z m130 -40 c0 -8 -7 -19 -15 -26 -28 -23 -60 21 -33 48 14
14 48 -2 48 -22z m-880 -85 c0 -5 -21 -28 -47 -50 -33 -28 -51 -37 -58 -30 -7
7 4 23 34 50 42 37 71 50 71 30z m130 -37 c11 -26 20 -48 20 -50 0 -2 -22 -4
-50 -4 -37 0 -50 4 -50 14 0 19 39 86 51 86 4 0 17 -21 29 -46z m168 -12 l3
-53 -48 3 -48 3 -3 53 -3 53 48 -3 48 -3 3 -53z m152 -2 l0 -50 -50 0 -50 0 0
50 0 50 50 0 50 0 0 -50z m150 -47 c0 -16 -86 -18 -95 -3 -3 5 2 24 11 42 31
62 36 63 60 16 13 -24 23 -49 24 -55z m150 73 c0 -14 -79 -86 -94 -86 -16 0
-3 28 31 62 38 39 63 49 63 24z m-639 -106 l49 0 0 -60 0 -60 -65 0 -65 0 0
66 c0 56 2 65 16 60 9 -3 38 -6 65 -6z m-121 -24 c0 -22 -83 -87 -95 -75 -7 7
4 23 34 50 46 42 61 48 61 25z m620 -51 l0 -65 -60 0 -60 0 0 65 0 65 60 0 60
0 0 -65z m-330 15 c11 -21 20 -44 20 -50 0 -5 -22 -10 -50 -10 -57 0 -60 7
-33 65 22 45 38 44 63 -5z m170 26 c0 -15 -74 -86 -90 -86 -23 0 -7 31 33 64
46 39 57 43 57 22z m294 -20 c-5 -14 -78 -76 -88 -76 -18 0 -1 33 34 64 39 35
65 41 54 12z m124 -34 c4 -29 -26 -42 -44 -18 -17 24 -6 48 20 44 13 -2 22
-12 24 -26z m-708 -124 l0 -63 -65 3 -65 4 0 59 0 59 65 0 65 0 0 -62z m-187
17 c27 -56 23 -65 -27 -65 -25 0 -48 4 -51 10 -8 13 33 90 48 90 7 0 21 -16
30 -35z m487 -29 l0 -64 -62 5 c-35 3 -63 6 -63 7 -1 0 1 27 3 59 l4 57 59 0
59 0 0 -64z m-223 43 c8 -8 17 -7 31 2 28 18 39 4 17 -21 -17 -19 -17 -21 -1
-39 22 -24 1 -41 -22 -17 -14 14 -17 14 -33 0 -26 -23 -45 -7 -23 18 15 16 16
23 6 38 -7 11 -12 22 -12 25 0 9 26 5 37 -6z m523 -54 c0 -64 0 -65 -27 -65
-16 0 -45 3 -65 6 l-38 7 0 58 0 59 65 0 65 0 0 -65z m-222 39 c8 -14 10 -14
21 0 13 16 41 22 41 9 0 -3 -7 -15 -17 -25 -15 -17 -15 -19 1 -37 22 -24 1
-41 -22 -17 -14 14 -17 14 -33 0 -25 -22 -46 -8 -24 16 13 14 14 23 6 39 -14
26 -14 31 4 31 7 0 18 -7 23 -16z m352 -6 c0 -16 -71 -88 -87 -88 -21 0 -15
12 29 57 43 44 58 52 58 31z m-730 -164 c0 -64 -1 -66 -22 -60 -13 3 -42 6
-65 6 l-43 0 0 60 0 60 65 0 65 0 0 -66z m-190 16 c11 -21 20 -44 20 -50 0 -5
-22 -10 -50 -10 -28 0 -50 5 -50 10 0 18 40 90 50 90 5 0 19 -18 30 -40z m316
25 c6 -2 10 -14 9 -27 -1 -21 -7 -23 -48 -23 -56 0 -63 18 -10 26 l38 6 -37 2
c-36 1 -54 12 -41 25 6 5 58 0 89 -9z m174 -51 l0 -67 -37 7 c-21 3 -50 6 -65
6 -27 0 -28 1 -28 60 l0 60 65 0 65 0 0 -66z m300 22 c0 -18 -3 -48 -6 -65 -6
-28 -10 -31 -43 -31 -75 0 -81 6 -81 71 l0 59 65 0 65 0 0 -34z m-165 14 c3
-6 -4 -14 -17 -19 -17 -7 -19 -10 -5 -10 9 -1 17 -5 17 -11 0 -13 -87 -13 -95
0 -3 6 4 14 17 19 16 7 18 10 6 10 -9 1 -20 6 -23 11 -4 6 13 10 44 10 27 0
53 -5 56 -10z m268 -27 c8 -16 18 -38 21 -50 7 -22 5 -23 -43 -23 -29 0 -51 5
-51 10 0 18 40 90 50 90 5 0 16 -12 23 -27z m-568 -38 c0 -11 -69 -19 -92 -11
-8 3 -11 11 -8 16 8 14 100 9 100 -5z m295 -10 c0 -11 -12 -15 -44 -15 -43 0
-63 10 -49 24 3 3 26 6 50 6 32 0 43 -4 43 -15z m-430 -101 c0 -64 -1 -66 -22
-60 -13 3 -42 6 -65 6 l-43 0 0 60 0 60 65 0 65 0 0 -66z m-170 46 c0 -10 -74
-82 -91 -88 -22 -8 -6 25 28 60 36 37 63 49 63 28z m470 -56 l0 -67 -46 7
c-26 3 -55 6 -65 6 -16 0 -19 8 -19 60 l0 60 65 0 65 0 0 -66z m-230 41 c12
-14 15 -14 31 1 24 21 38 10 21 -16 -10 -16 -10 -24 0 -40 16 -25 2 -38 -19
-18 -14 15 -18 15 -39 2 -28 -19 -43 -1 -20 25 15 16 15 19 1 31 -8 7 -15 16
-15 21 0 15 27 10 40 -6z m520 -50 l0 -65 -44 0 c-71 0 -76 4 -76 71 l0 59 60
0 60 0 0 -65z m-160 5 l0 -50 -50 0 -50 0 0 50 0 50 50 0 50 0 0 -50z m263
-21 c-44 -41 -63 -48 -63 -25 0 22 83 87 95 75 7 -7 -4 -23 -32 -50z m-2420
-60 c12 -1 28 -1 35 0 15 2 15 -2 -2 -44 -16 -38 -42 -50 -31 -14 6 19 5 20
-15 9 -32 -17 -50 -5 -50 33 0 41 8 51 27 32 8 -8 24 -16 36 -16z m117 -1 l9
-23 0 22 c1 17 6 22 22 20 11 -2 24 -8 27 -13 4 -5 13 -9 21 -9 19 0 35 -29
28 -49 -5 -13 -14 -16 -34 -12 -16 4 -49 7 -75 8 -53 3 -53 2 -37 47 13 37 26
40 39 9z m210 1 c0 -5 7 -9 15 -9 8 0 15 -5 15 -11 0 -8 5 -8 15 1 8 7 21 10
29 7 8 -3 17 -1 20 6 3 9 7 9 13 -1 10 -13 106 -19 140 -8 12 4 24 3 27 -2 3
-5 21 -7 40 -6 20 2 36 -1 36 -5 0 -5 18 -7 39 -4 33 5 40 2 46 -16 3 -11 3
-25 0 -31 -8 -13 -42 -13 -51 1 -4 8 -9 7 -14 -2 -7 -10 -12 -10 -23 0 -10 8
-17 9 -22 1 -3 -5 -16 -8 -28 -5 -18 4 -152 12 -264 14 -17 1 -23 7 -24 24
l-2 22 -4 -22 c-4 -18 -10 -22 -44 -20 -38 1 -39 2 -39 37 0 35 1 36 40 37 22
1 40 -2 40 -8z m1534 5 c17 -6 21 -58 10 -101 -6 -21 -13 -23 -65 -23 l-59 0
0 65 0 65 49 0 c27 0 56 -3 65 -6z m-154 -16 c0 -16 -71 -88 -87 -88 -21 0
-15 12 29 57 43 44 58 52 58 31z m265 -58 c-35 -36 -65 -51 -65 -33 0 4 19 27
42 50 28 29 45 40 52 33 7 -7 -3 -23 -29 -50z m-438 34 c8 -21 -19 -46 -40
-38 -17 6 -23 35 -10 47 12 13 44 7 50 -9z m623 -2 c0 -4 -20 -27 -44 -51 -56
-55 -75 -37 -20 20 35 36 64 50 64 31z m140 -4 c0 -16 -71 -88 -87 -88 -21 0
-15 12 29 57 43 44 58 52 58 31z m129 -22 c15 -18 3 -46 -20 -46 -22 0 -34 22
-25 45 7 19 30 19 45 1z m-749 -121 c18 -21 5 -47 -22 -43 -26 3 -37 36 -16
49 18 12 24 11 38 -6z m157 -11 c8 -21 -19 -46 -40 -38 -17 6 -23 35 -10 47
12 13 44 7 50 -9z m143 1 c17 -20 5 -45 -20 -45 -11 0 -23 7 -26 15 -6 15 11
45 26 45 4 0 13 -7 20 -15z"/>
<path d="M3630 6850 c0 -5 5 -10 11 -10 5 0 7 5 4 10 -3 6 -8 10 -11 10 -2 0
-4 -4 -4 -10z"/>
<path d="M2475 6710 c-8 -13 -1 -24 14 -19 6 3 7 10 2 18 -6 10 -10 10 -16 1z"/>
<path d="M2136 6555 c-4 -10 1 -15 14 -15 13 0 18 5 14 15 -4 8 -10 15 -14 15
-4 0 -10 -7 -14 -15z"/>
<path d="M3490 6550 c0 -5 5 -10 11 -10 5 0 7 5 4 10 -3 6 -8 10 -11 10 -2 0
-4 -4 -4 -10z"/>
<path d="M3750 6555 c0 -18 5 -25 20 -25 15 0 20 7 20 25 0 18 -5 25 -20 25
-15 0 -20 -7 -20 -25z"/>
<path d="M2136 6405 c-4 -10 1 -15 16 -15 17 0 18 2 8 15 -7 8 -14 15 -15 15
-2 0 -5 -7 -9 -15z"/>
<path d="M3070 6400 c0 -5 5 -10 10 -10 6 0 10 5 10 10 0 6 -4 10 -10 10 -5 0
-10 -4 -10 -10z"/>
<path d="M3215 6400 c-3 -5 -1 -10 4 -10 6 0 11 5 11 10 0 6 -2 10 -4 10 -3 0
-8 -4 -11 -10z"/>
<path d="M3490 6400 c0 -5 5 -10 11 -10 5 0 7 5 4 10 -3 6 -8 10 -11 10 -2 0
-4 -4 -4 -10z"/>
<path d="M3760 6390 c0 -5 5 -10 10 -10 6 0 10 5 10 10 0 6 -4 10 -10 10 -5 0
-10 -4 -10 -10z"/>
<path d="M2760 6265 c0 -20 5 -25 25 -25 20 0 25 5 25 25 0 20 -5 25 -25 25
-20 0 -25 -5 -25 -25z"/>
<path d="M3210 6250 c0 -5 5 -10 11 -10 5 0 7 5 4 10 -3 6 -8 10 -11 10 -2 0
-4 -4 -4 -10z"/>
<path d="M3610 6255 c0 -18 5 -25 20 -25 15 0 20 7 20 25 0 18 -5 25 -20 25
-15 0 -20 -7 -20 -25z"/>
<path d="M4036 6245 c-3 -9 0 -15 9 -15 9 0 12 6 9 15 -4 8 -7 15 -9 15 -2 0
-5 -7 -9 -15z"/>
<path d="M3346 5945 c-3 -9 0 -15 9 -15 9 0 12 6 9 15 -4 8 -7 15 -9 15 -2 0
-5 -7 -9 -15z"/>
<path d="M3470 5955 c0 -18 5 -25 20 -25 15 0 20 7 20 25 0 18 -5 25 -20 25
-15 0 -20 -7 -20 -25z"/>
<path d="M3880 5951 c0 -17 18 -31 41 -31 5 0 9 11 9 25 0 20 -5 25 -25 25
-18 0 -25 -5 -25 -19z"/>
<path d="M4036 5935 c-3 -9 0 -15 9 -15 9 0 12 6 9 15 -4 8 -7 15 -9 15 -2 0
-5 -7 -9 -15z"/>
<path d="M2450 5659 c0 -15 5 -20 22 -17 34 5 37 38 4 38 -20 0 -26 -5 -26
-21z"/>
<path d="M2750 5655 c0 -20 5 -25 25 -25 20 0 25 5 25 25 0 20 -5 25 -25 25
-20 0 -25 -5 -25 -25z"/>
<path d="M2130 5500 c0 -5 7 -10 16 -10 8 0 12 5 9 10 -3 6 -10 10 -16 10 -5
0 -9 -4 -9 -10z"/>
<path d="M2766 5495 c-3 -9 0 -15 9 -15 9 0 12 6 9 15 -4 8 -7 15 -9 15 -2 0
-5 -7 -9 -15z"/>
<path d="M3205 5490 c-3 -5 -1 -10 4 -10 6 0 11 5 11 10 0 6 -2 10 -4 10 -3 0
-8 -4 -11 -10z"/>
<path d="M4035 5480 c-3 -5 -1 -10 4 -10 6 0 11 5 11 10 0 6 -2 10 -4 10 -3 0
-8 -4 -11 -10z"/>
<path d="M3480 5180 c0 -5 5 -10 11 -10 5 0 7 5 4 10 -3 6 -8 10 -11 10 -2 0
-4 -4 -4 -10z"/>
<path d="M2456 5045 c-3 -9 0 -15 9 -15 9 0 12 6 9 15 -4 8 -7 15 -9 15 -2 0
-5 -7 -9 -15z"/>
<path d="M2590 5050 c0 -15 7 -20 25 -20 18 0 25 5 25 20 0 15 -7 20 -25 20
-18 0 -25 -5 -25 -20z"/>
<path d="M2750 5050 c0 -11 2 -20 4 -20 2 0 11 -3 20 -6 12 -5 16 0 16 20 0
19 -5 26 -20 26 -13 0 -20 -7 -20 -20z"/>
<path d="M3616 5025 c-3 -9 0 -15 9 -15 9 0 12 6 9 15 -4 8 -7 15 -9 15 -2 0
-5 -7 -9 -15z"/>
<path d="M3755 5020 c-3 -5 -1 -10 4 -10 6 0 11 5 11 10 0 6 -2 10 -4 10 -3 0
-8 -4 -11 -10z"/>
<path d="M2450 4890 c0 -5 5 -10 10 -10 6 0 10 5 10 10 0 6 -4 10 -10 10 -5 0
-10 -4 -10 -10z"/>
<path d="M3476 4875 c-3 -9 0 -15 9 -15 9 0 12 6 9 15 -4 8 -7 15 -9 15 -2 0
-5 -7 -9 -15z"/>
<path d="M2126 4745 c-3 -9 0 -15 9 -15 16 0 20 16 6 24 -5 3 -11 -1 -15 -9z"/>
<path d="M3190 4720 c0 -5 5 -10 10 -10 6 0 10 5 10 10 0 6 -4 10 -10 10 -5 0
-10 -4 -10 -10z"/>
<path d="M2126 4595 c-3 -9 0 -15 9 -15 9 0 12 6 9 15 -4 8 -7 15 -9 15 -2 0
-5 -7 -9 -15z"/>
<path d="M3046 4575 c-3 -9 0 -15 9 -15 9 0 12 6 9 15 -4 8 -7 15 -9 15 -2 0
-5 -7 -9 -15z"/>
<path d="M3190 4570 c0 -5 5 -10 10 -10 6 0 10 5 10 10 0 6 -4 10 -10 10 -5 0
-10 -4 -10 -10z"/>
<path d="M4036 4561 c-4 -7 -5 -15 -2 -18 9 -9 19 4 14 18 -4 11 -6 11 -12 0z"/>
<path d="M600 4375 c0 -61 1 -65 23 -65 34 0 47 19 47 65 0 46 -13 65 -47 65
-22 0 -23 -4 -23 -65z"/>
<path d="M2740 4435 c0 -18 5 -25 20 -25 15 0 20 7 20 25 0 18 -5 25 -20 25
-15 0 -20 -7 -20 -25z"/>
<path d="M3740 4415 c0 -18 5 -25 20 -25 15 0 20 7 20 25 0 18 -5 25 -20 25
-15 0 -20 -7 -20 -25z"/>
<path d="M805 4380 c-4 -6 5 -10 20 -10 15 0 24 4 20 10 -3 6 -12 10 -20 10
-8 0 -17 -4 -20 -10z"/>
<path d="M800 4311 c0 -16 28 -20 47 -6 17 13 16 14 -14 15 -18 0 -33 -4 -33
-9z"/>
<path d="M980 4382 c0 -5 9 -12 21 -15 13 -3 19 -1 16 6 -5 15 -37 22 -37 9z"/>
<path d="M1246 4364 c-29 -28 -13 -74 25 -74 32 0 40 63 10 80 -15 7 -23 6
-35 -6z"/>
<path d="M1240 4225 c7 -8 18 -15 25 -15 7 0 18 7 25 15 11 13 7 15 -25 15
-32 0 -36 -2 -25 -15z"/>
<path d="M1260 4070 c-21 -13 -7 -22 27 -18 27 3 27 4 7 15 -12 7 -26 8 -34 3z"/>
<path d="M1730 4062 c0 -5 9 -12 21 -15 13 -3 19 -1 16 6 -5 15 -37 22 -37 9z"/>
<path d="M2596 3975 c-3 -9 0 -15 9 -15 9 0 12 6 9 15 -4 8 -7 15 -9 15 -2 0
-5 -7 -9 -15z"/>
<path d="M2746 3971 c-3 -5 1 -11 9 -14 9 -4 12 -1 8 9 -6 16 -10 17 -17 5z"/>
<path d="M3040 3960 c0 -5 5 -10 10 -10 6 0 10 5 10 10 0 6 -4 10 -10 10 -5 0
-10 -4 -10 -10z"/>
<path d="M3186 3962 c-3 -6 -1 -14 5 -17 14 -9 20 -2 10 14 -6 8 -11 9 -15 3z"/>
<path d="M3456 3974 c-10 -27 -7 -34 19 -34 20 0 25 5 25 25 0 29 -34 36 -44
9z"/>
<path d="M3606 3945 c-3 -9 0 -15 9 -15 16 0 20 16 6 24 -5 3 -11 -1 -15 -9z"/>
<path d="M3740 3955 c0 -18 5 -25 20 -25 15 0 20 7 20 25 0 18 -5 25 -20 25
-15 0 -20 -7 -20 -25z"/>
<path d="M3170 3815 c0 -18 5 -25 20 -25 15 0 20 7 20 25 0 18 -5 25 -20 25
-15 0 -20 -7 -20 -25z"/>
<path d="M4030 3780 c0 -5 5 -10 10 -10 6 0 10 5 10 10 0 6 -4 10 -10 10 -5 0
-10 -4 -10 -10z"/>
<path d="M2420 3680 c0 -15 7 -20 25 -20 18 0 25 5 25 20 0 15 -7 20 -25 20
-18 0 -25 -5 -25 -20z"/>
<path d="M2590 3660 c0 -5 5 -10 10 -10 6 0 10 5 10 10 0 6 -4 10 -10 10 -5 0
-10 -4 -10 -10z"/>
<path d="M2730 3675 c0 -18 5 -25 20 -25 15 0 20 7 20 25 0 18 -5 25 -20 25
-15 0 -20 -7 -20 -25z"/>
<path d="M3036 3655 c-3 -9 0 -15 9 -15 9 0 12 6 9 15 -4 8 -7 15 -9 15 -2 0
-5 -7 -9 -15z"/>
<path d="M3180 3650 c0 -5 5 -10 10 -10 6 0 10 5 10 10 0 6 -4 10 -10 10 -5 0
-10 -4 -10 -10z"/>
<path d="M3450 3655 c0 -20 5 -25 25 -25 20 0 25 5 25 25 0 20 -5 25 -25 25
-20 0 -25 -5 -25 -25z"/>
<path d="M3605 3640 c-3 -5 -1 -10 4 -10 6 0 11 5 11 10 0 6 -2 10 -4 10 -3 0
-8 -4 -11 -10z"/>
<path d="M3746 3635 c-3 -9 0 -15 9 -15 9 0 12 6 9 15 -4 8 -7 15 -9 15 -2 0
-5 -7 -9 -15z"/>
<path d="M2436 3515 c-3 -9 0 -15 9 -15 9 0 12 6 9 15 -4 8 -7 15 -9 15 -2 0
-5 -7 -9 -15z"/>
<path d="M2435 3210 c-3 -5 -1 -10 4 -10 6 0 11 5 11 10 0 6 -2 10 -4 10 -3 0
-8 -4 -11 -10z"/>
<path d="M2570 3215 c0 -20 5 -25 25 -25 20 0 25 5 25 25 0 20 -5 25 -25 25
-20 0 -25 -5 -25 -25z"/>
<path d="M3450 3195 c0 -18 5 -25 20 -25 15 0 20 7 20 25 0 18 -5 25 -20 25
-15 0 -20 -7 -20 -25z"/>
<path d="M3730 3185 c0 -20 5 -25 25 -25 20 0 25 5 25 25 0 20 -5 25 -25 25
-20 0 -25 -5 -25 -25z"/>
<path d="M3870 3185 c0 -20 5 -25 25 -25 20 0 25 5 25 25 0 20 -5 25 -25 25
-20 0 -25 -5 -25 -25z"/>
<path d="M3175 3040 c-3 -5 -1 -10 4 -10 6 0 11 5 11 10 0 6 -2 10 -4 10 -3 0
-8 -4 -11 -10z"/>
<path d="M3745 3020 c-3 -5 -1 -10 4 -10 6 0 11 5 11 10 0 6 -2 10 -4 10 -3 0
-8 -4 -11 -10z"/>
<path d="M3886 3015 c-3 -9 0 -15 9 -15 9 0 12 6 9 15 -4 8 -7 15 -9 15 -2 0
-5 -7 -9 -15z"/>
<path d="M4176 3011 c-3 -5 1 -11 9 -14 9 -4 12 -1 8 9 -6 16 -10 17 -17 5z"/>
<path d="M4175 2860 c-8 -13 -1 -24 14 -19 6 3 7 10 2 18 -6 10 -10 10 -16 1z"/>
<path d="M2115 2760 c-3 -5 -1 -10 4 -10 6 0 11 5 11 10 0 6 -2 10 -4 10 -3 0
-8 -4 -11 -10z"/>
<path d="M3026 2735 c-3 -9 0 -15 9 -15 9 0 12 6 9 15 -4 8 -7 15 -9 15 -2 0
-5 -7 -9 -15z"/>
<path d="M3310 2570 c0 -5 5 -10 10 -10 6 0 10 5 10 10 0 6 -4 10 -10 10 -5 0
-10 -4 -10 -10z"/>
<path d="M4030 2550 c0 -5 5 -10 11 -10 5 0 7 5 4 10 -3 6 -8 10 -11 10 -2 0
-4 -4 -4 -10z"/>
<path d="M2425 2450 c-8 -13 -1 -24 14 -19 6 3 7 10 2 18 -6 10 -10 10 -16 1z"/>
<path d="M2420 2290 c0 -5 5 -10 10 -10 6 0 10 5 10 10 0 6 -4 10 -10 10 -5 0
-10 -4 -10 -10z"/>
<path d="M2870 2280 c0 -5 5 -10 10 -10 6 0 10 5 10 10 0 6 -4 10 -10 10 -5 0
-10 -4 -10 -10z"/>
<path d="M3456 2271 c-4 -7 -5 -15 -2 -18 9 -9 19 4 14 18 -4 11 -6 11 -12 0z"/>
<path d="M3580 2265 c0 -20 5 -25 25 -25 20 0 25 5 25 25 0 20 -5 25 -25 25
-20 0 -25 -5 -25 -25z"/>
<path d="M3870 2255 c0 -18 5 -25 19 -25 12 0 20 9 23 25 4 21 1 25 -18 25
-19 0 -24 -5 -24 -25z"/>
<path d="M3740 2100 c0 -5 5 -10 10 -10 6 0 10 5 10 10 0 6 -4 10 -10 10 -5 0
-10 -4 -10 -10z"/>
<path d="M2400 2005 c0 -20 5 -25 25 -25 29 0 36 34 9 44 -27 10 -34 7 -34
-19z"/>
<path d="M3445 1950 c-3 -5 1 -10 9 -10 9 0 16 5 16 10 0 6 -4 10 -9 10 -6 0
-13 -4 -16 -10z"/>
<path d="M3596 1955 c-3 -9 0 -15 9 -15 9 0 12 6 9 15 -4 8 -7 15 -9 15 -2 0
-5 -7 -9 -15z"/>
<path d="M3730 1955 c0 -18 5 -25 20 -25 15 0 20 7 20 25 0 18 -5 25 -20 25
-15 0 -20 -7 -20 -25z"/>
<path d="M2866 1825 c-3 -9 0 -15 9 -15 9 0 12 6 9 15 -4 8 -7 15 -9 15 -2 0
-5 -7 -9 -15z"/>
<path d="M2400 1695 c0 -20 5 -25 25 -25 20 0 25 5 25 25 0 20 -5 25 -25 25
-20 0 -25 -5 -25 -25z"/>
<path d="M3450 1650 c0 -5 5 -10 11 -10 5 0 7 5 4 10 -3 6 -8 10 -11 10 -2 0
-4 -4 -4 -10z"/>
<path d="M3590 1640 c0 -5 5 -10 10 -10 6 0 10 5 10 10 0 6 -4 10 -10 10 -5 0
-10 -4 -10 -10z"/>
<path d="M2260 1390 c0 -5 5 -10 11 -10 5 0 7 5 4 10 -3 6 -8 10 -11 10 -2 0
-4 -4 -4 -10z"/>
<path d="M2400 1395 c0 -18 5 -25 20 -25 15 0 20 7 20 25 0 18 -5 25 -20 25
-15 0 -20 -7 -20 -25z"/>
<path d="M2550 1390 c0 -13 7 -20 20 -20 13 0 20 7 20 20 0 13 -7 20 -20 20
-13 0 -20 -7 -20 -20z"/>
<path d="M2710 1370 c0 -5 5 -10 10 -10 6 0 10 5 10 10 0 6 -4 10 -10 10 -5 0
-10 -4 -10 -10z"/>
<path d="M2410 1230 c0 -5 5 -10 10 -10 6 0 10 5 10 10 0 6 -4 10 -10 10 -5 0
-10 -4 -10 -10z"/>
<path d="M2100 1090 c0 -5 5 -10 10 -10 6 0 10 5 10 10 0 6 -4 10 -10 10 -5 0
-10 -4 -10 -10z"/>
<path d="M2100 940 c0 -5 5 -10 10 -10 6 0 10 5 10 10 0 6 -4 10 -10 10 -5 0
-10 -4 -10 -10z"/>
<path d="M3000 910 c0 -5 5 -10 10 -10 6 0 10 5 10 10 0 6 -4 10 -10 10 -5 0
-10 -4 -10 -10z"/>
<path d="M2690 780 c0 -15 7 -20 25 -20 18 0 25 5 25 20 0 15 -7 20 -25 20
-18 0 -25 -5 -25 -20z"/>
<path d="M896 682 c-2 -4 -1 -14 5 -22 7 -12 9 -10 9 8 0 23 -5 28 -14 14z"/>
</g>
</svg>
