<?xml version="1.0" standalone="no"?>
<!DOCTYPE svg PUBLIC "-//W3C//DTD SVG 20010904//EN"
 "http://www.w3.org/TR/2001/REC-SVG-20010904/DTD/svg10.dtd">
<svg version="1.0" xmlns="http://www.w3.org/2000/svg"
 width="1920.000000pt" height="1080.000000pt" viewBox="0 0 1920.000000 1080.000000"
 preserveAspectRatio="xMidYMid meet">

<g transform="translate(0.000000,1080.000000) scale(0.100000,-0.100000)"
fill="#000000" stroke="none">
<path d="M10477 9993 c-11 -18 -229 -614 -226 -617 8 -6 1017 -526 1022 -526
6 0 335 474 343 494 3 8 -178 116 -558 331 -310 175 -566 320 -570 322 -4 2
-9 0 -11 -4z m33 -183 c0 -13 -7 -20 -20 -20 -13 0 -20 7 -20 20 0 13 7 20 20
20 13 0 20 -7 20 -20z m234 -82 c9 -12 16 -29 16 -37 0 -24 -32 -51 -60 -51
-33 0 -52 21 -52 57 0 50 67 72 96 31z m4 -269 c3 -28 -16 -43 -43 -33 -15 6
-21 45 -8 58 16 16 48 1 51 -25z m-284 -5 c8 -20 -10 -54 -29 -54 -26 0 -46
29 -35 51 13 23 55 25 64 3z m962 -89 c38 -38 16 -95 -37 -95 -56 0 -82 73
-37 104 31 22 45 20 74 -9z m-313 -1 c9 -10 -4 -34 -18 -34 -17 0 -28 17 -20
30 7 11 28 13 38 4z m-335 -66 c19 -19 14 -56 -8 -63 -24 -8 -50 10 -50 34 0
19 19 41 35 41 6 0 16 -5 23 -12z m190 -85 c-2 -10 -10 -18 -18 -18 -8 0 -16
8 -18 18 -2 12 3 17 18 17 15 0 20 -5 18 -17z m336 -168 c7 -19 -20 -46 -39
-39 -15 6 -20 35 -8 47 12 12 41 7 47 -8z"/>
<path d="M9300 9724 c-293 -26 -553 -69 -765 -125 l-39 -11 89 -34 c129 -50
307 -145 414 -221 213 -153 398 -382 487 -604 l18 -46 130 -39 c72 -21 135
-40 142 -42 6 -2 17 11 24 28 7 17 23 39 37 49 l23 19 -90 52 c-104 59 -125
85 -125 150 0 36 12 65 59 150 70 124 98 157 146 170 42 11 78 3 134 -31 22
-13 41 -19 43 -14 101 260 188 511 179 516 -30 17 -253 31 -541 34 -176 1
-340 1 -365 -1z"/>
<path d="M7957 9554 c-12 -22 -88 -270 -116 -382 -68 -269 -100 -554 -82 -727
6 -55 14 -118 17 -140 l6 -40 -45 -12 c-126 -34 -317 -137 -356 -192 l-19 -26
156 13 c87 7 169 11 183 10 l26 -3 -148 -380 c-81 -209 -152 -387 -157 -395
-6 -10 -39 -20 -94 -28 -108 -15 -237 -53 -350 -102 -97 -42 -254 -132 -306
-177 l-33 -28 108 -1 c59 -1 137 -9 173 -17 l65 -15 -35 -12 c-79 -30 -271
-135 -360 -198 -121 -86 -287 -251 -370 -369 -61 -87 -160 -264 -160 -287 0
-5 12 2 28 16 37 35 116 73 181 87 59 13 71 9 54 -17 -46 -66 -126 -209 -152
-271 -115 -273 -98 -541 48 -747 52 -74 129 -152 118 -121 -8 21 11 201 24
232 5 13 8 15 8 5 6 -114 68 -378 126 -536 73 -195 226 -485 343 -648 l38 -54
-3 226 c-1 144 1 216 7 197 4 -16 18 -68 30 -115 37 -148 146 -354 280 -530
73 -95 163 -191 155 -165 -25 78 -57 466 -34 415 64 -142 172 -342 224 -415
163 -227 389 -419 652 -553 51 -26 93 -50 93 -53 0 -4 -48 -21 -107 -38 -586
-170 -1127 -170 -1661 1 -69 22 -150 51 -180 64 l-55 24 80 83 c129 135 210
269 220 363 7 67 -11 98 -67 115 -113 34 -233 -94 -345 -371 -29 -71 -55 -138
-58 -149 -5 -19 -10 -18 -117 20 -150 53 -314 96 -435 114 -133 20 -424 20
-539 0 -167 -29 -225 -87 -161 -163 63 -75 238 -105 612 -106 138 -1 250 -2
249 -4 -2 -1 -36 -11 -75 -22 -182 -51 -363 -181 -462 -334 -49 -75 -53 -124
-11 -156 22 -18 36 -21 72 -17 71 8 149 43 220 96 78 59 250 235 343 349 37
46 67 82 67 79 0 -3 -16 -40 -35 -83 -75 -165 -94 -275 -54 -315 31 -31 114
-23 164 15 41 32 92 106 121 179 10 26 24 45 29 43 106 -47 280 -113 370 -140
587 -178 1260 -165 1877 38 56 18 105 32 107 30 2 -2 -232 -1351 -255 -1465
-5 -25 -1 -27 113 -62 158 -49 274 -80 279 -74 5 5 283 1531 280 1535 -2 1
-38 -14 -80 -33 -87 -39 -106 -43 -106 -17 0 52 52 438 60 446 11 11 27 -2
173 -130 99 -88 104 -91 127 -78 37 20 74 17 102 -10 l26 -23 148 78 c145 77
168 87 177 72 8 -15 -48 -456 -59 -460 -6 -2 -46 24 -90 57 -43 34 -79 58 -80
53 -5 -20 -37 -1593 -33 -1598 3 -2 89 -8 191 -11 l185 -7 6 279 c4 153 7 487
7 742 0 254 3 462 6 462 3 0 51 -32 107 -71 385 -272 833 -468 1252 -549 373
-72 761 -73 1129 -2 65 12 91 13 93 5 14 -41 87 -143 122 -171 37 -28 50 -32
101 -32 49 0 61 4 74 22 33 46 7 165 -70 321 -40 83 -49 90 110 -91 98 -112
237 -238 319 -290 97 -61 218 -81 257 -42 42 42 22 108 -64 212 -100 121 -270
227 -431 268 -43 11 -81 22 -83 25 -3 2 37 2 89 -1 119 -8 455 11 574 32 49 8
111 25 138 36 98 43 126 120 58 165 -114 77 -483 85 -789 17 -101 -22 -316
-90 -407 -128 l-33 -14 -47 118 c-127 319 -266 465 -390 408 -29 -13 -55 -55
-55 -88 0 -82 108 -256 240 -388 l90 -89 -88 -13 c-129 -18 -484 -24 -616 -10
-376 40 -757 162 -1091 347 -119 66 -334 207 -390 256 l-40 35 70 7 c329 31
672 93 935 168 83 24 149 40 148 36 -7 -19 -152 -136 -245 -199 -114 -75 -227
-134 -348 -180 l-80 -31 95 6 c701 44 1303 350 1608 816 32 48 62 95 69 105
22 34 -17 -87 -69 -214 -28 -67 -88 -197 -134 -288 l-84 -166 38 28 c268 202
481 539 637 1009 43 129 107 379 125 485 7 41 16 79 21 84 4 4 13 -18 19 -50
16 -73 7 -358 -14 -459 -8 -38 -12 -72 -11 -74 2 -2 26 31 53 72 104 159 149
316 159 547 14 350 -89 754 -304 1195 l-34 70 51 -53 c96 -102 198 -261 335
-524 46 -90 85 -157 85 -150 0 36 -43 220 -71 299 -86 246 -290 582 -513 843
-25 29 -46 58 -46 62 0 5 29 42 64 82 193 221 443 558 588 788 160 257 310
591 331 740 l6 37 -96 46 c-183 89 -372 146 -603 182 -144 22 -542 25 -700 5
-242 -31 -470 -79 -670 -143 -52 -17 -100 -32 -106 -35 -6 -3 -43 35 -81 83
-227 284 -549 484 -908 563 -49 11 -103 20 -119 20 -27 0 -25 -3 28 -35 32
-19 80 -51 106 -70 49 -36 244 -234 237 -241 -2 -2 -55 19 -118 47 -246 110
-551 222 -734 269 -49 13 -95 27 -101 32 -6 4 -16 27 -23 50 -34 113 -134 282
-234 396 -166 189 -418 347 -703 441 -183 60 -474 117 -487 95z m344 -374
c254 -85 507 -269 643 -467 49 -72 88 -166 79 -189 -2 -6 -50 -26 -105 -44
-134 -42 -285 -108 -558 -243 -124 -62 -228 -113 -231 -115 -12 -6 -60 120
-74 194 -27 137 -14 334 35 543 29 125 102 351 113 351 5 0 49 -13 98 -30z
m4199 -1440 c52 -6 128 -19 168 -30 69 -19 172 -64 172 -75 0 -14 -95 -192
-155 -289 -143 -235 -337 -462 -486 -569 -37 -26 -71 -47 -76 -47 -4 0 -30 44
-57 98 -126 255 -285 489 -455 671 -28 30 -48 58 -44 62 10 9 134 53 253 90
164 51 391 91 555 97 17 1 73 -3 125 -8z m-2769 -166 c72 -21 116 -45 169 -89
221 -185 342 -577 327 -1059 -10 -324 -73 -557 -202 -751 -242 -364 -673 -506
-1083 -357 -108 40 -190 91 -274 170 -288 272 -329 715 -109 1177 152 318 408
621 669 789 181 117 365 161 503 120z m-1583 -909 c66 -56 88 -188 53 -325
-26 -105 -54 -163 -105 -218 -71 -77 -139 -94 -195 -47 -45 39 -66 104 -66
210 0 110 27 204 84 292 70 109 162 144 229 88z m-508 -632 c126 -47 475 -245
553 -314 91 -80 35 -151 -173 -219 -96 -31 -363 -90 -411 -90 -24 0 -31 9 -67
93 -80 181 -140 418 -126 493 14 78 85 89 224 37z m3854 -184 c56 -16 136 -95
175 -175 34 -70 76 -218 85 -299 3 -27 2 -79 -3 -115 -6 -57 -8 -61 -15 -35
-73 290 -138 408 -263 482 -43 25 -57 28 -143 28 -91 0 -99 -2 -175 -40 -44
-21 -84 -41 -90 -43 -23 -8 95 91 154 130 106 70 190 91 275 67z m-90 -325
c23 -9 20 -35 -18 -132 -195 -500 -546 -958 -936 -1222 -471 -318 -1034 -400
-1656 -240 -229 59 -484 157 -724 279 -97 49 -115 62 -118 84 -6 48 27 43 166
-27 608 -304 1158 -406 1657 -305 587 119 1101 555 1433 1216 43 87 94 196
112 243 44 112 48 118 84 104z m-4994 -2624 c11 -11 20 -29 20 -40 0 -26 -34
-60 -60 -60 -26 0 -60 34 -60 60 0 26 34 60 60 60 11 0 29 -9 40 -20z m358
-53 c4 -20 -25 -34 -40 -19 -15 15 -1 44 19 40 10 -2 19 -11 21 -21z m1140
-20 c4 -20 -25 -34 -40 -19 -15 15 -1 44 19 40 10 -2 19 -11 21 -21z m670 14
c8 -4 12 -19 10 -32 -2 -18 -9 -24 -28 -24 -28 0 -39 27 -20 50 14 17 20 18
38 6z m-900 -127 c3 -22 -21 -39 -39 -28 -11 6 -12 38 -2 48 13 13 38 1 41
-20z m446 10 c19 -18 19 -20 6 -45 -18 -33 -70 -18 -70 21 0 19 19 40 36 40 7
0 20 -7 28 -16z m-1186 -33 c6 -40 -39 -56 -58 -20 -9 15 -8 24 1 35 18 22 53
13 57 -15z m290 -23 c17 -17 15 -53 -3 -68 -20 -17 -62 -5 -70 20 -14 44 41
80 73 48z m2602 -48 c13 -23 -2 -60 -25 -60 -30 0 -45 13 -45 40 0 42 51 56
70 20z m-1020 -150 c16 -31 -4 -62 -38 -58 -28 3 -40 32 -28 64 8 21 54 17 66
-6z m1226 -69 c-4 -6 -16 -11 -27 -11 -21 0 -27 35 -6 43 16 6 41 -18 33 -32z
m-1498 3 c24 -17 30 -62 10 -82 -20 -20 -76 -15 -88 7 -15 29 -12 49 10 71 24
24 38 25 68 4z m976 -56 c14 -23 -3 -52 -33 -56 -42 -6 -67 38 -39 66 17 17
58 11 72 -10z m654 -10 c-6 -18 -28 -21 -28 -4 0 9 7 16 16 16 9 0 14 -5 12
-12z m87 -99 c14 -42 -45 -66 -61 -24 -10 25 4 45 30 45 16 0 27 -7 31 -21z
m300 -44 c0 -22 -31 -33 -47 -17 -17 17 -1 44 24 40 15 -2 23 -10 23 -23z
m333 -46 c4 -30 -22 -46 -44 -28 -17 14 -18 31 -2 47 19 19 43 9 46 -19z
m-1468 6 c0 -8 -7 -15 -15 -15 -8 0 -15 7 -15 15 0 8 7 15 15 15 8 0 15 -7 15
-15z m-872 -107 c5 -38 -28 -54 -58 -30 -20 16 -21 21 -11 41 18 33 65 26 69
-11z m2128 -39 c10 -17 -13 -36 -27 -22 -12 12 -4 33 11 33 5 0 12 -5 16 -11z
m1077 -27 c22 -19 22 -70 0 -94 -48 -53 -141 11 -112 76 21 45 72 53 112 18z
m-2286 -3 c14 -14 6 -39 -12 -39 -18 0 -28 17 -21 35 6 18 18 19 33 4z m-889
-161 c-6 -18 -28 -21 -28 -4 0 9 7 16 16 16 9 0 14 -5 12 -12z m822 -33 c20
-25 8 -50 -25 -50 -31 0 -43 20 -31 51 7 18 40 18 56 -1z m148 -37 c20 -20 14
-56 -13 -74 -23 -15 -27 -15 -50 0 -27 18 -31 36 -15 67 12 22 59 26 78 7z
m-1044 -112 c45 -19 66 -52 66 -102 0 -60 -44 -104 -104 -104 -100 0 -145 111
-75 186 19 20 31 26 72 33 4 0 23 -5 41 -13z m874 -248 c-2 -15 -11 -24 -25
-26 -19 -3 -23 1 -23 22 0 21 5 26 26 26 21 0 25 -4 22 -22z m-1080 -126 c3
-16 -2 -22 -16 -22 -24 0 -35 23 -19 39 16 16 31 8 35 -17z m1196 -14 c14 -23
-3 -52 -33 -56 -42 -6 -67 38 -39 66 17 17 58 11 72 -10z"/>
<path d="M9595 6096 c-96 -58 -165 -220 -165 -387 0 -103 13 -154 50 -191 55
-55 139 -31 204 59 60 82 88 172 94 298 4 99 2 116 -18 163 -36 83 -91 102
-165 58z"/>
<path d="M7600 9244 c-940 -492 -1677 -1311 -2059 -2289 -440 -1125 -396
-2390 121 -3466 l80 -166 55 -12 c30 -7 93 -26 139 -41 77 -27 86 -28 91 -12
57 155 155 323 232 395 77 73 122 92 216 92 70 0 86 -4 128 -28 26 -15 60 -47
75 -69 25 -38 27 -50 27 -138 0 -93 -1 -99 -42 -181 -23 -46 -67 -117 -97
-156 l-55 -73 82 -25 c227 -68 403 -95 667 -102 163 -4 249 -1 355 11 155 18
315 47 315 56 0 4 -35 31 -77 62 -119 85 -244 198 -324 293 -68 82 -73 85 -90
69 -29 -26 -108 -29 -145 -6 -53 34 -250 270 -310 371 -16 27 -20 29 -74 24
-39 -4 -65 -1 -86 10 -69 36 -293 398 -400 647 -15 36 -48 125 -74 197 -46
132 -46 133 -105 180 -110 90 -221 264 -260 408 -39 147 -29 349 24 515 l28
86 -38 16 c-46 19 -79 69 -79 118 0 69 101 262 219 420 71 96 235 260 327 328
l71 52 -24 49 c-33 65 -21 112 42 170 58 54 187 137 295 191 95 48 312 121
410 139 l65 12 98 252 c53 139 97 255 97 259 0 4 -44 5 -97 1 -92 -5 -100 -4
-133 19 -43 29 -60 61 -60 114 0 97 132 215 338 299 l53 22 3 224 c3 242 16
336 77 592 17 71 29 130 27 132 -2 2 -59 -25 -128 -61z"/>
<path d="M11447 8857 l-244 -352 26 -34 c43 -57 37 -107 -28 -221 -30 -52 -64
-109 -76 -125 -19 -26 -21 -33 -10 -49 12 -16 17 -16 97 8 203 61 452 111 678
137 160 18 510 15 663 -5 128 -17 322 -61 406 -91 24 -8 46 -13 49 -11 14 15
-351 397 -523 545 -231 201 -551 425 -763 535 l-30 16 -245 -353z"/>
<path d="M9831 8998 c-28 -51 -48 -95 -44 -99 7 -6 1141 -651 1209 -687 20
-11 25 -5 73 80 28 51 48 95 44 99 -11 10 -1113 636 -1209 687 -20 11 -25 5
-73 -80z m97 -56 c4 -28 -24 -40 -45 -19 -14 13 -14 19 -3 32 18 22 44 15 48
-13z m100 -49 c-2 -10 -10 -18 -18 -18 -8 0 -16 8 -18 18 -2 12 3 17 18 17 15
0 20 -5 18 -17z m256 -65 c16 -26 -4 -53 -40 -53 -23 0 -30 5 -32 23 -7 47 47
69 72 30z m186 -218 c0 -5 -4 -10 -10 -10 -5 0 -10 5 -10 10 0 6 5 10 10 10 6
0 10 -4 10 -10z m228 -128 c4 -29 -26 -42 -44 -18 -17 24 -6 48 20 44 13 -2
22 -12 24 -26z m195 -7 c18 -17 12 -51 -10 -59 -37 -15 -69 34 -41 62 16 16
33 15 51 -3z"/>
<path d="M13331 7562 c-109 -311 -404 -780 -768 -1223 l-113 -138 71 -88 c226
-281 424 -652 488 -913 29 -119 41 -233 30 -275 -12 -44 -60 -83 -110 -91 -37
-6 -40 -9 -35 -33 3 -14 10 -83 16 -153 24 -314 -39 -595 -181 -807 -78 -118
-97 -133 -163 -139 l-54 -4 -38 -97 c-117 -298 -334 -635 -492 -766 l-32 -27
50 -45 c65 -59 155 -195 205 -312 21 -50 44 -91 50 -91 6 0 51 14 101 30 173
59 420 110 532 110 38 0 43 4 115 93 209 258 364 497 517 802 244 484 382 949
447 1510 24 211 24 701 -1 910 -49 422 -137 782 -282 1154 -49 124 -242 522
-297 608 l-32 52 -24 -67z"/>
<path d="M11540 2788 c-255 -162 -547 -266 -935 -333 l-40 -7 26 -13 c98 -52
429 -141 631 -170 112 -17 456 -32 482 -22 15 6 10 17 -28 70 -73 103 -118
207 -124 288 -4 64 -2 75 28 133 47 94 39 105 -40 54z"/>
<path d="M6253 2560 c32 -47 226 -256 313 -339 254 -243 514 -441 819 -626
133 -80 432 -229 570 -284 90 -37 101 -39 107 -23 10 24 220 1223 215 1228 -2
3 -67 -11 -145 -30 -290 -71 -498 -96 -811 -96 -363 0 -670 49 -994 159 -78
27 -86 28 -74 11z"/>
<path d="M9757 2016 c-4 -111 -7 -387 -7 -615 l0 -414 128 7 c567 31 1140 182
1667 441 155 75 450 244 442 252 -2 1 -41 -3 -88 -9 -49 -7 -195 -12 -349 -12
-287 0 -420 14 -666 69 -343 77 -734 238 -1025 421 l-96 61 -6 -201z"/>
</g>
</svg>
